<svg width="64" height="207" viewBox="0 0 64 207" fill="none" xmlns="http://www.w3.org/2000/svg">
<path id="Vector" d="M88.9562 158.477C119.689 166.699 150.662 148.343 159.032 117.757C163.331 102.891 160.934 87.0764 153.842 74.3482C145.664 60.997 133.877 51.3552 119.169 47.9821C104.232 43.7559 88.319 46.1911 75.4948 53.2845C62.0406 61.4609 52.3052 73.2123 48.8645 87.8484C44.5652 102.715 46.9621 118.529 54.0539 131.258C62.4614 145.462 74.2479 155.104 88.9562 158.477ZM130.376 203.149C113.203 207.751 94.8869 208.087 76.9169 202.845C50.0762 195.409 28.0476 178.454 14.3213 154.704C0.594988 130.953 -3.05606 103.589 3.65232 77.106C11.2194 50.3929 28.3428 28.4334 52.2738 14.7069C76.2048 0.980363 103.737 -2.73984 130.349 3.84365C157.19 11.2802 179.219 28.2346 192.945 51.9851C206.671 75.7355 210.322 103.1 203.614 129.583C194.268 166.83 164.722 193.946 130.376 203.149Z" fill="#5D4BEF"/>
</svg>
