<svg width="157" height="384" viewBox="0 0 157 384" fill="none" xmlns="http://www.w3.org/2000/svg">
<path d="M145.836 383.572C95.4167 370.568 52.6752 338.135 26.767 292.963C-0.685627 245.462 -7.58624 188.798 10.3524 135.534C24.7947 93.2646 52.4565 55.6814 90.2433 31.8423C137.191 0.977128 193.745 -7.77644 247.426 7.09661L245.418 16.7773C240.088 34.6628 223.254 47.4017 204.71 46.885C135.684 43.4378 71.2731 88.125 52.0683 157.27C41.2335 195.83 46.5958 236.451 66.7281 270.37C80.9116 295.827 102.767 315.57 127.316 328.192C144.483 337.307 153.175 356.006 148.073 374.744L145.836 383.572Z" fill="#5D4BEF"/>
</svg>
