<svg width="296" height="393" viewBox="0 0 296 393" fill="none" xmlns="http://www.w3.org/2000/svg">
<g opacity="0.1">
<path d="M177.939 81.8131C145.786 93.5741 128.689 127.358 139.618 157.536C150.548 187.713 185.253 202.549 217.406 190.788C249.559 179.027 266.655 145.243 255.726 115.065C244.797 84.8878 210.092 70.0521 177.939 81.8131ZM232.889 233.54C175.728 254.448 113.498 227.846 94.0683 174.197C74.6383 120.548 104.991 59.1316 162.152 38.2232C219.313 17.3148 282.436 43.5899 301.866 97.2391C321.599 151.726 290.05 212.631 232.889 233.54Z" fill="#371CF5"/>
<path d="M264.478 320.72C155.515 360.577 37.0384 309.931 0 207.662L9.82452 204.068C28.5804 197.208 50.1039 203.575 60.0519 219.872C97.4152 278.353 175.453 303.919 247.798 277.457C320.142 250.995 363.57 180.998 354.787 112.062C352.878 92.8254 364.4 74.3708 383.156 67.5103L392.981 63.9166C431.805 165.532 373.44 280.863 264.478 320.72Z" fill="#371CF5"/>
</g>
</svg>
