<svg width="289" height="393" viewBox="0 0 289 393" fill="none" xmlns="http://www.w3.org/2000/svg">
<g opacity="0.1">
<path d="M5.93866 81.8131C-26.2143 93.5741 -43.3111 127.358 -32.3817 157.536C-21.4524 187.713 13.2528 202.549 45.4058 190.788C77.5588 179.027 94.6555 145.243 83.7262 115.065C72.7968 84.8878 38.0916 70.0521 5.93866 81.8131ZM60.889 233.54C3.72823 254.448 -58.5018 227.846 -77.9317 174.197C-97.3617 120.548 -67.009 59.1315 -9.84819 38.2231C47.3126 17.3147 110.436 43.5899 129.866 97.2391C149.599 151.727 118.05 212.631 60.889 233.54Z" fill="#371CF5"/>
<path d="M92.4776 320.72C-16.4853 360.577 -134.962 309.931 -172 207.662L-162.175 204.068C-143.42 197.208 -121.896 203.575 -111.948 219.872C-74.5848 278.353 3.45341 303.919 75.7976 277.457C148.142 250.995 191.57 180.998 182.787 112.062C180.878 92.8254 192.4 74.3708 211.156 67.5103L220.981 63.9166C259.805 165.532 201.44 280.863 92.4776 320.72Z" fill="#371CF5"/>
</g>
</svg>
