<svg width="169" height="40" viewBox="0 0 169 40" fill="none" xmlns="http://www.w3.org/2000/svg">
<g clip-path="url(#clip0_49_131)">
<path d="M19.7315 2.85007C17.7746 2.85007 16.1982 4.42646 16.1982 6.38336C16.1982 8.34026 17.7746 9.91665 19.7315 9.91665C21.6884 9.91665 23.2648 8.34026 23.2648 6.38336C23.2648 4.42646 21.6884 2.85007 19.7315 2.85007ZM19.7315 12.6889C16.2525 12.6889 13.4259 9.86229 13.4259 6.38336C13.4259 2.90443 16.2525 0.0234375 19.7315 0.0234375C23.2104 0.0234375 26.0914 2.85007 26.0914 6.329C26.0914 9.86229 23.2104 12.6889 19.7315 12.6889Z" fill="white"/>
<path d="M19.7319 18.3423C13.1002 18.3423 7.71875 12.9608 7.71875 6.3291H8.31669C9.45822 6.3291 10.491 7.14448 10.7085 8.286C11.5782 12.4172 15.2746 15.5157 19.6776 15.5157C24.0806 15.5157 27.777 12.4172 28.6467 8.286C28.9185 7.14448 29.8969 6.3291 31.0385 6.3291H31.6364C31.7451 12.9608 26.3637 18.3423 19.7319 18.3423Z" fill="white"/>
<path d="M31.4187 32.6383C33.1038 33.6168 35.2238 33.0188 36.2023 31.3337C36.6915 30.5183 36.8002 29.5399 36.5828 28.6702C36.311 27.7461 35.7674 26.985 34.952 26.5502C34.1367 26.061 33.1582 25.9522 32.2885 26.1697C31.3644 26.4415 30.6034 26.985 30.1685 27.8004C29.6793 28.6158 29.5706 29.5942 29.788 30.464C30.0598 31.4424 30.6034 32.2034 31.4187 32.6383ZM33.1582 35.9542C32.071 35.9542 30.9839 35.6824 30.0054 35.0844C28.5378 34.2147 27.5049 32.8557 27.0701 31.225C26.6352 29.5942 26.8526 27.9091 27.668 26.4415C28.5378 24.9738 29.8967 23.941 31.5275 23.5061C33.1582 23.0712 34.8433 23.2887 36.311 24.1041C37.7787 24.9738 38.8115 26.3327 39.2463 27.9635C39.6812 29.5942 39.4638 31.2794 38.6484 32.747C37.5069 34.8126 35.3325 35.9542 33.1582 35.9542Z" fill="white"/>
<path d="M27.1787 39.9766C24.4064 38.4002 22.3951 35.791 21.5798 32.6926C20.71 29.4311 21.1993 25.9522 23.1018 23.0712C24.6238 20.7882 26.8525 18.9943 29.4617 18.179C32.7232 17.0918 36.2022 17.4723 39.1375 19.2118L38.8657 19.7553C38.2678 20.7338 37.0719 21.223 35.9847 20.8969C31.9622 19.5923 27.4505 21.223 25.2218 25.0281C23.9715 27.1481 23.6454 29.6486 24.2977 31.986C24.7326 33.7254 25.711 35.2475 26.9612 36.389C27.831 37.2044 28.0484 38.4546 27.4505 39.4874L27.1787 39.9766Z" fill="white"/>
<path d="M6.30482 26.1154C5.70688 26.1154 5.10894 26.2784 4.56535 26.6046C2.88024 27.583 2.33666 29.703 3.26075 31.3881C4.2392 33.0732 6.35918 33.6168 8.04428 32.6927C8.85966 32.2035 9.4576 31.4425 9.67503 30.5727C9.94683 29.6487 9.78375 28.7246 9.29453 27.9092C8.8053 27.0938 8.04428 26.4959 7.17455 26.2784C6.90276 26.1154 6.63097 26.1154 6.30482 26.1154ZM6.35918 35.9542C4.18484 35.9542 2.01051 34.8127 0.868988 32.8014C-0.870478 29.7574 0.16233 25.8979 3.15204 24.1585C4.61971 23.2887 6.30482 23.0713 7.93557 23.5605C9.56632 23.9954 10.9253 25.0282 11.795 26.4959C12.6647 27.9635 12.8822 29.6487 12.393 31.2794C11.9581 32.9102 10.9253 34.2691 9.4576 35.1388C8.47915 35.6824 7.39198 35.9542 6.35918 35.9542Z" fill="white"/>
<path d="M12.3386 39.9767L12.0668 39.4331C11.4689 38.4003 11.6863 37.1501 12.556 36.3347C13.8606 35.1932 14.7847 33.6168 15.2196 31.9317C15.8719 29.5399 15.5457 27.0938 14.2955 24.9738C12.0668 21.1688 7.55506 19.538 3.53254 20.8426C2.44538 21.2231 1.24949 20.7339 0.651552 19.7554L0.379761 19.2119C6.08738 15.896 13.4801 17.9073 16.7416 23.6149C18.318 26.3872 18.7529 29.6487 17.9375 32.7471C17.0678 35.8455 15.1109 38.4003 12.3386 39.9767Z" fill="white"/>
<path d="M107.737 12.5801C105.454 12.5801 103.497 13.5585 102.193 15.298C101.051 13.5042 99.2031 12.5801 96.8657 12.5801C95.0175 12.5801 93.0062 13.2324 92.1365 14.7544C92.1365 13.6672 91.2124 12.6888 89.2012 12.9606H89.0381V31.4424H92.1365V21.1143C92.1365 18.4508 93.3324 15.6241 96.6483 15.6241C98.9857 15.6241 100.29 17.1462 100.29 19.8641V31.4424H103.389V21.1143C103.389 17.6354 104.965 15.6241 107.737 15.6241C110.129 15.6241 111.542 17.1462 111.542 19.8641V28.9963C111.542 30.3552 112.63 31.4968 114.043 31.4968H114.641V19.8097C114.586 15.4067 111.869 12.5801 107.737 12.5801Z" fill="white"/>
<path d="M168.999 16.0048V12.9607H163.944V7.19873L160.845 8.99256V12.9607H157.095V16.0048H160.791V26.2785C160.791 28.1267 161.28 29.4313 162.313 30.301C163.183 31.062 164.433 31.4425 166.009 31.4425C166.716 31.4425 167.477 31.3882 168.347 31.2251L168.945 31.1164V28.2898L168.184 28.3441C166.444 28.5072 164.977 28.5615 164.379 28.0723C164.053 27.8005 163.89 27.2026 163.89 26.3329V16.0048H168.999Z" fill="white"/>
<path d="M83.6028 22.0928C83.6028 25.6261 80.7218 28.5071 77.1885 28.5071C73.6552 28.5071 70.7742 25.6261 70.7742 22.0928C70.7742 18.5595 73.6552 15.6785 77.1885 15.6785C80.7218 15.6785 83.6028 18.5595 83.6028 22.0928ZM77.1885 12.5801C71.9157 12.5801 67.6758 16.8744 67.6758 22.0928C67.6758 27.3655 71.9701 31.6055 77.1885 31.6055C82.4612 31.6055 86.7012 27.3112 86.7012 22.0928C86.7012 16.82 82.4612 12.5801 77.1885 12.5801Z" fill="white"/>
<path d="M61.9672 26.8222C60.717 27.9637 59.0319 28.616 57.238 28.5073C54.0309 28.2898 51.4761 25.7894 51.2586 22.5822C50.9868 18.8315 53.9765 15.6787 57.6185 15.6787C59.2493 15.6787 60.717 16.2767 61.8585 17.3095C62.7282 18.0705 63.9785 18.1248 64.9026 17.4725L65.6092 16.9833C63.8154 14.1567 60.5539 12.3629 56.9119 12.5803C52.2371 12.9064 48.4863 16.6572 48.1058 21.332C47.671 26.9309 52.074 31.6057 57.6185 31.6057C61.0431 31.6057 64.0328 29.8119 65.7179 27.094L65.0113 26.6047C64.0872 25.9524 62.7826 26.0068 61.9672 26.8222Z" fill="white"/>
<path d="M126.002 12.6348C120.838 12.6348 116.815 16.8204 116.815 22.1475C116.815 27.4746 120.892 31.6602 126.002 31.6602C126.056 31.6602 126.111 31.6602 126.219 31.6602C129.535 31.5515 132.416 29.812 134.101 27.1484L133.395 26.6592C132.471 26.0069 131.166 26.0613 130.351 26.8223C129.263 27.8007 127.85 28.453 126.274 28.5074C126.165 28.5074 126.111 28.5074 126.056 28.5074C123.175 28.5074 120.784 26.5505 120.131 23.6695H135.134L135.189 23.3977C135.243 22.9628 135.297 22.528 135.297 22.0931C135.243 16.8204 131.22 12.6348 126.002 12.6348ZM120.131 20.6254C120.784 17.7444 123.175 15.7875 126.056 15.7875C128.937 15.7875 131.329 17.7444 131.981 20.6254H120.131Z" fill="white"/>
<path d="M146.821 12.6348C141.657 12.6348 137.635 16.8204 137.635 22.1475C137.635 27.4746 141.712 31.6602 146.821 31.6602C146.876 31.6602 146.93 31.6602 147.039 31.6602C150.355 31.5515 153.236 29.812 154.921 27.1484L154.214 26.6592C153.29 26.0069 151.985 26.0613 151.17 26.8223C150.083 27.8007 148.67 28.453 147.093 28.5074C146.984 28.5074 146.93 28.5074 146.876 28.5074C143.995 28.5074 141.603 26.5505 140.951 23.6695H155.954L156.008 23.3977C156.062 22.9628 156.117 22.528 156.117 22.0931C156.008 16.8204 151.985 12.6348 146.821 12.6348ZM140.896 20.6254C141.549 17.7444 143.94 15.7875 146.821 15.7875C149.702 15.7875 152.094 17.7444 152.746 20.6254H140.896Z" fill="white"/>
</g>
<defs>
<clipPath id="clip0_49_131">
<rect width="169" height="39.9534" fill="white" transform="translate(0 0.0234375)"/>
</clipPath>
</defs>
</svg>
