<svg width="75" height="75" viewBox="0 0 75 75" fill="none" xmlns="http://www.w3.org/2000/svg">
<g clip-path="url(#clip0_49_508)">
<path d="M42.1666 51.9999C40.024 51.9999 37.9294 51.3646 36.1479 50.1742C34.3664 48.9838 32.9778 47.2919 32.1579 45.3123C31.3379 43.3328 31.1234 41.1546 31.5414 39.0531C31.9594 36.9516 32.9912 35.0213 34.5063 33.5063C36.0213 31.9912 37.9516 30.9594 40.0531 30.5414C42.1546 30.1234 44.3328 30.3379 46.3123 31.1579C48.2919 31.9778 49.9838 33.3664 51.1742 35.1479C52.3646 36.9294 52.9999 39.024 52.9999 41.1666C52.9999 44.0398 51.8586 46.7953 49.8269 48.8269C47.7953 50.8586 45.0398 51.9999 42.1666 51.9999ZM42.1666 31.9999C40.3536 31.9999 38.5813 32.5375 37.0739 33.5448C35.5664 34.552 34.3915 35.9837 33.6977 37.6587C33.0039 39.3336 32.8224 41.1768 33.1761 42.9549C33.5298 44.7331 34.4028 46.3664 35.6848 47.6484C36.9668 48.9304 38.6001 49.8034 40.3783 50.1571C42.1564 50.5108 43.9995 50.3293 45.6745 49.6355C47.3495 48.9417 48.7811 47.7668 49.7884 46.2593C50.7956 44.7519 51.3333 42.9796 51.3333 41.1666C51.3333 39.9628 51.0962 38.7708 50.6355 37.6587C50.1748 36.5465 49.4996 35.536 48.6484 34.6848C47.7972 33.8336 46.7867 33.1584 45.6745 32.6977C44.5624 32.237 43.3704 31.9999 42.1666 31.9999Z" fill="#371CF5"/>
<path d="M23.8334 52.8333C21.9917 52.8333 20.5 50.9666 20.5 48.6666C20.4635 48.2196 20.5246 47.77 20.6792 47.349C20.8338 46.928 21.0781 46.5457 21.3953 46.2285C21.7124 45.9114 22.0947 45.6671 22.5158 45.5125C22.9368 45.3579 23.3864 45.2967 23.8334 45.3333C24.2804 45.2967 24.73 45.3579 25.151 45.5125C25.572 45.6671 25.9543 45.9114 26.2715 46.2285C26.5886 46.5457 26.8329 46.928 26.9875 47.349C27.1421 47.77 27.2032 48.2196 27.1667 48.6666C27.1667 50.9666 25.675 52.8333 23.8334 52.8333ZM23.8334 46.9999C22.3417 46.9999 22.1667 47.9499 22.1667 48.6666C22.1667 49.9999 22.9417 51.1666 23.8334 51.1666C24.725 51.1666 25.5 49.9999 25.5 48.6666C25.5 47.9499 25.325 46.9999 23.8334 46.9999Z" fill="#1E0F00"/>
<path d="M29.6667 57.0001H28V54.2417C28.0029 54.0432 27.9348 53.8502 27.808 53.6974C27.6812 53.5446 27.504 53.4421 27.3083 53.4084L23.8333 52.8334L20.3583 53.4167C20.1627 53.4505 19.9855 53.553 19.8587 53.7057C19.7319 53.8585 19.6638 54.0516 19.6667 54.2501V57.0001H18V54.2417C18.0019 53.6509 18.213 53.0798 18.5959 52.6298C18.9788 52.1798 19.5087 51.8799 20.0917 51.7834L23.7 51.1667H23.9667L27.575 51.7751C28.1593 51.8718 28.6904 52.1729 29.0734 52.6246C29.4565 53.0764 29.6667 53.6495 29.6667 54.2417V57.0001Z" fill="#1E0F00"/>
<path d="M23.8334 24.5C21.9917 24.5 20.5 22.6334 20.5 20.3334C20.4635 19.8864 20.5246 19.4368 20.6792 19.0158C20.8338 18.5947 21.0781 18.2124 21.3953 17.8953C21.7124 17.5781 22.0947 17.3338 22.5158 17.1792C22.9368 17.0246 23.3864 16.9635 23.8334 17C24.2804 16.9635 24.73 17.0246 25.151 17.1792C25.572 17.3338 25.9543 17.5781 26.2715 17.8953C26.5886 18.2124 26.8329 18.5947 26.9875 19.0158C27.1421 19.4368 27.2032 19.8864 27.1667 20.3334C27.1667 22.6334 25.675 24.5 23.8334 24.5ZM23.8334 18.6667C22.3417 18.6667 22.1667 19.6167 22.1667 20.3334C22.1667 21.6667 22.9417 22.8334 23.8334 22.8334C24.725 22.8334 25.5 21.6667 25.5 20.3334C25.5 19.6167 25.325 18.6667 23.8334 18.6667Z" fill="#1E0F00"/>
<path d="M29.6667 28.6666H28V25.9083C28.0029 25.7097 27.9348 25.5167 27.808 25.3639C27.6812 25.2111 27.504 25.1087 27.3083 25.0749L23.8333 24.4999L20.3583 25.0833C20.1627 25.117 19.9855 25.2195 19.8587 25.3722C19.7319 25.525 19.6638 25.7181 19.6667 25.9166V28.6666H18V25.9083C18.0019 25.3174 18.213 24.7463 18.5959 24.2963C18.9788 23.8463 19.5087 23.5464 20.0917 23.4499L23.7 22.8333H23.9667L27.575 23.4416C28.1593 23.5383 28.6904 23.8394 29.0734 24.2911C29.4565 24.7429 29.6667 25.316 29.6667 25.9083V28.6666Z" fill="#1E0F00"/>
<path d="M23.8334 38.6668C21.9917 38.6668 20.5 36.8001 20.5 34.5001C20.4635 34.0531 20.5246 33.6035 20.6792 33.1825C20.8338 32.7615 21.0781 32.3792 21.3953 32.062C21.7124 31.7449 22.0947 31.5006 22.5158 31.346C22.9368 31.1914 23.3864 31.1302 23.8334 31.1668C24.2804 31.1302 24.73 31.1914 25.151 31.346C25.572 31.5006 25.9543 31.7449 26.2715 32.062C26.5886 32.3792 26.8329 32.7615 26.9875 33.1825C27.1421 33.6035 27.2032 34.0531 27.1667 34.5001C27.1667 36.8001 25.675 38.6668 23.8334 38.6668ZM23.8334 32.8334C22.3417 32.8334 22.1667 33.7834 22.1667 34.5001C22.1667 35.8334 22.9417 37.0001 23.8334 37.0001C24.725 37.0001 25.5 35.8334 25.5 34.5001C25.5 33.7834 25.325 32.8334 23.8334 32.8334Z" fill="#1E0F00"/>
<path d="M29.6666 42.8335H28V40.0751C28.0029 39.8766 27.9348 39.6836 27.808 39.5308C27.6812 39.378 27.504 39.2755 27.3083 39.2418L23.8333 38.6668L20.3583 39.2501C20.1627 39.2839 19.9855 39.3864 19.8587 39.5391C19.7319 39.6919 19.6638 39.885 19.6666 40.0835V42.8335H18V40.0751C17.992 39.4771 18.1986 38.8961 18.5823 38.4374C18.9661 37.9787 19.5016 37.6728 20.0916 37.5751L23.7 37.0001C23.7887 36.9918 23.878 36.9918 23.9666 37.0001L27.575 37.6085C28.165 37.7061 28.7005 38.012 29.0843 38.4707C29.468 38.9294 29.6747 39.5105 29.6666 40.1085V42.8335Z" fill="#1E0F00"/>
<path d="M38 24.5C36.1583 24.5 34.6667 22.6334 34.6667 20.3334C34.6301 19.8864 34.6912 19.4368 34.8458 19.0158C35.0004 18.5947 35.2448 18.2124 35.5619 17.8953C35.879 17.5781 36.2614 17.3338 36.6824 17.1792C37.1034 17.0246 37.553 16.9635 38 17C38.447 16.9635 38.8966 17.0246 39.3176 17.1792C39.7386 17.3338 40.1209 17.5781 40.4381 17.8953C40.7552 18.2124 40.9995 18.5947 41.1541 19.0158C41.3087 19.4368 41.3699 19.8864 41.3333 20.3334C41.3333 22.6334 39.8417 24.5 38 24.5ZM38 18.6667C36.5083 18.6667 36.3333 19.6167 36.3333 20.3334C36.3333 21.6667 37.1083 22.8334 38 22.8334C38.8917 22.8334 39.6667 21.6667 39.6667 20.3334C39.6667 19.6167 39.4917 18.6667 38 18.6667Z" fill="#1E0F00"/>
<path d="M43.8333 28.6666H42.1666V25.9083C42.1695 25.7097 42.1014 25.5167 41.9746 25.3639C41.8478 25.2111 41.6706 25.1087 41.475 25.0749L38 24.4999L34.525 25.0833C34.3293 25.117 34.1521 25.2195 34.0253 25.3722C33.8985 25.525 33.8304 25.7181 33.8333 25.9166V28.6666H32.1666V25.9083C32.1685 25.3174 32.3797 24.7463 32.7626 24.2963C33.1455 23.8463 33.6754 23.5464 34.2583 23.4499L37.8666 22.8333H38.1333L41.7416 23.4416C42.326 23.5383 42.857 23.8394 43.24 24.2911C43.6231 24.7429 43.8334 25.316 43.8333 25.9083V28.6666Z" fill="#1E0F00"/>
<path d="M52.1666 24.5C50.3249 24.5 48.8333 22.6334 48.8333 20.3334C48.7967 19.8864 48.8579 19.4368 49.0125 19.0158C49.1671 18.5947 49.4114 18.2124 49.7285 17.8953C50.0457 17.5781 50.428 17.3338 50.849 17.1792C51.27 17.0246 51.7196 16.9635 52.1666 17C52.6136 16.9635 53.0632 17.0246 53.4842 17.1792C53.9052 17.3338 54.2876 17.5781 54.6047 17.8953C54.9218 18.2124 55.1662 18.5947 55.3208 19.0158C55.4754 19.4368 55.5365 19.8864 55.4999 20.3334C55.4999 22.6334 54.0083 24.5 52.1666 24.5ZM52.1666 18.6667C50.6749 18.6667 50.4999 19.6167 50.4999 20.3334C50.4999 21.6667 51.2749 22.8334 52.1666 22.8334C53.0583 22.8334 53.8333 21.6667 53.8333 20.3334C53.8333 19.6167 53.6583 18.6667 52.1666 18.6667Z" fill="#1E0F00"/>
<path d="M58 28.6666H56.3334V25.9083C56.3363 25.7097 56.2682 25.5167 56.1414 25.3639C56.0146 25.2111 55.8374 25.1087 55.6417 25.0749L52.1667 24.4999L48.6917 25.0833C48.496 25.117 48.3189 25.2195 48.1921 25.3722C48.0652 25.525 47.9972 25.7181 48 25.9166V28.6666H46.3334V25.9083C46.3353 25.3174 46.5464 24.7463 46.9293 24.2963C47.3122 23.8463 47.8421 23.5464 48.425 23.4499L52.0334 22.8333H52.3L55.9084 23.4416C56.4927 23.5383 57.0237 23.8394 57.4068 24.2911C57.7899 24.7429 58.0001 25.316 58 25.9083V28.6666Z" fill="#1E0F00"/>
<path d="M42.1666 42.8333C40.3249 42.8333 38.8333 40.9666 38.8333 38.6666C38.7967 38.2196 38.8579 37.77 39.0125 37.349C39.1671 36.928 39.4114 36.5457 39.7285 36.2285C40.0457 35.9114 40.428 35.6671 40.849 35.5125C41.27 35.3579 41.7196 35.2967 42.1666 35.3333C42.6136 35.2967 43.0632 35.3579 43.4842 35.5125C43.9052 35.6671 44.2876 35.9114 44.6047 36.2285C44.9218 36.5457 45.1662 36.928 45.3208 37.349C45.4754 37.77 45.5365 38.2196 45.4999 38.6666C45.4999 40.9666 44.0083 42.8333 42.1666 42.8333ZM42.1666 36.9999C40.6749 36.9999 40.4999 37.9499 40.4999 38.6666C40.4999 39.9999 41.2749 41.1666 42.1666 41.1666C43.0583 41.1666 43.8333 39.9999 43.8333 38.6666C43.8333 37.9499 43.6583 36.9999 42.1666 36.9999Z" fill="#371CF5"/>
<path d="M48 46.1667H46.3334V44.2417C46.3363 44.0431 46.2682 43.8501 46.1414 43.6973C46.0146 43.5445 45.8374 43.4421 45.6417 43.4083L42.1667 42.8333L38.6917 43.4167C38.496 43.4504 38.3189 43.5529 38.1921 43.7056C38.0652 43.8584 37.9972 44.0515 38 44.25V46.1667H36.3334V44.2417C36.3353 43.6508 36.5464 43.0797 36.9293 42.6297C37.3122 42.1797 37.8421 41.8798 38.425 41.7833L42.0334 41.1667C42.1221 41.1583 42.2113 41.1583 42.3 41.1667L45.9084 41.775C46.4927 41.8717 47.0237 42.1728 47.4068 42.6245C47.7899 43.0763 48.0001 43.6494 48 44.2417V46.1667Z" fill="#371CF5"/>
<path d="M53 57C52.8903 57.0006 52.7816 56.9796 52.68 56.9381C52.5785 56.8966 52.4862 56.8355 52.4083 56.7583L46.575 50.9249L47.7583 49.7416L53 54.9916L55.9916 52L50.7416 46.7583L51.925 45.575L57.7583 51.4083C57.8364 51.4858 57.8984 51.5779 57.9407 51.6795C57.983 51.781 58.0048 51.8899 58.0048 52C58.0048 52.11 57.983 52.2189 57.9407 52.3204C57.8984 52.422 57.8364 52.5141 57.7583 52.5916L53.5916 56.7583C53.5138 56.8355 53.4214 56.8966 53.3199 56.9381C53.2183 56.9796 53.1096 57.0006 53 57Z" fill="#371CF5"/>
</g>
<rect x="0.5" y="0.5" width="74" height="74" rx="11.5" stroke="#CFCECF"/>
<defs>
<clipPath id="clip0_49_508">
<rect width="40" height="40" fill="white" transform="translate(18 17)"/>
</clipPath>
</defs>
</svg>
