<svg width="35" height="35" viewBox="0 0 35 35" fill="none" xmlns="http://www.w3.org/2000/svg">
<g clip-path="url(#clip0_49_496)">
<path d="M17.2794 20.8591C16.5714 20.8591 15.8793 20.6491 15.2906 20.2558C14.702 19.8625 14.2431 19.3034 13.9722 18.6493C13.7013 17.9952 13.6304 17.2754 13.7685 16.581C13.9066 15.8866 14.2475 15.2488 14.7482 14.7482C15.2488 14.2475 15.8866 13.9066 16.581 13.7685C17.2754 13.6304 17.9952 13.7013 18.6493 13.9722C19.3034 14.2431 19.8625 14.702 20.2558 15.2906C20.6491 15.8793 20.8591 16.5714 20.8591 17.2794C20.8591 18.2288 20.4819 19.1393 19.8106 19.8106C19.1393 20.4819 18.2288 20.8591 17.2794 20.8591ZM17.2794 15.1316C16.8546 15.1316 16.4393 15.2576 16.0861 15.4936C15.7329 15.7296 15.4576 16.065 15.2951 16.4575C15.1325 16.8499 15.09 17.2818 15.1729 17.6984C15.2557 18.115 15.4603 18.4978 15.7607 18.7981C16.061 19.0985 16.4437 19.3031 16.8604 19.3859C17.277 19.4688 17.7089 19.4263 18.1013 19.2637C18.4938 19.1012 18.8292 18.8259 19.0652 18.4727C19.3012 18.1195 19.4272 17.7042 19.4272 17.2794C19.4272 16.7098 19.2009 16.1635 18.7981 15.7607C18.3953 15.3579 17.849 15.1316 17.2794 15.1316Z" fill="#371CF5"/>
<path d="M18.7113 26.5866H15.8475C15.684 26.5914 15.5238 26.54 15.3935 26.441C15.2632 26.342 15.1708 26.2013 15.1316 26.0425L14.566 23.7801L12.5614 24.9829C12.4246 25.0648 12.2644 25.0987 12.1062 25.0793C11.948 25.0598 11.8008 24.9881 11.6879 24.8755L9.66184 22.8494C9.54925 22.7366 9.47755 22.5894 9.4581 22.4311C9.43865 22.2729 9.47255 22.1127 9.55445 21.976L10.7572 19.9713L8.51634 19.4272C8.35749 19.388 8.21686 19.2956 8.11786 19.1653C8.01886 19.0351 7.96746 18.8748 7.97223 18.7113V15.8475C7.96746 15.684 8.01886 15.5238 8.11786 15.3935C8.21686 15.2632 8.35749 15.1708 8.51634 15.1316L10.7787 14.566L9.57593 12.5614C9.49403 12.4246 9.46012 12.2644 9.47958 12.1062C9.49903 11.948 9.57073 11.8008 9.68332 11.6879L11.7094 9.66184C11.8223 9.54925 11.9695 9.47755 12.1277 9.4581C12.2859 9.43865 12.4461 9.47255 12.5829 9.55445L14.5875 10.7572L15.1316 8.51634C15.1708 8.35749 15.2632 8.21686 15.3935 8.11786C15.5238 8.01886 15.684 7.96746 15.8475 7.97223H18.7113C18.8748 7.96746 19.0351 8.01886 19.1653 8.11786C19.2956 8.21686 19.388 8.35749 19.4272 8.51634L19.9928 10.7787L21.9974 9.57593C22.1342 9.49403 22.2944 9.46012 22.4526 9.47958C22.6108 9.49903 22.758 9.57073 22.8709 9.68332L24.897 11.7094C25.0096 11.8223 25.0813 11.9695 25.1007 12.1277C25.1202 12.2859 25.0863 12.4461 25.0044 12.5829L23.8016 14.5875L26.064 15.1531C26.2152 15.1955 26.3483 15.2864 26.4427 15.4119C26.5372 15.5374 26.5877 15.6905 26.5866 15.8475V18.7113C26.5914 18.8748 26.54 19.0351 26.441 19.1653C26.342 19.2956 26.2013 19.388 26.0425 19.4272L23.7801 19.9928L24.9829 21.9974C25.0648 22.1342 25.0987 22.2944 25.0793 22.4526C25.0598 22.6108 24.9881 22.758 24.8755 22.8709L22.8494 24.897C22.7366 25.0096 22.5894 25.0813 22.4311 25.1007C22.2729 25.1202 22.1127 25.0863 21.976 25.0044L19.9713 23.8016L19.4272 26.0425C19.388 26.2013 19.2956 26.342 19.1653 26.441C19.0351 26.54 18.8748 26.5914 18.7113 26.5866ZM16.406 25.1547H18.1529L18.8187 22.4986C18.8451 22.3888 18.8972 22.2868 18.9706 22.2009C19.044 22.115 19.1367 22.0478 19.2411 22.0046C19.3439 21.963 19.455 21.9459 19.5656 21.9546C19.6762 21.9633 19.7832 21.9976 19.8783 22.0547L22.2337 23.4866L23.4651 22.2552L22.0332 19.8997C21.9761 19.8047 21.9418 19.6976 21.9331 19.5871C21.9244 19.4765 21.9415 19.3654 21.9831 19.2626C22.0263 19.1582 22.0936 19.0655 22.1794 18.9921C22.2653 18.9187 22.3673 18.8666 22.4771 18.8402L25.1547 18.1529V16.406L22.4986 15.7401C22.3888 15.7137 22.2868 15.6617 22.2009 15.5882C22.115 15.5148 22.0478 15.4221 22.0046 15.3177C21.963 15.2149 21.9459 15.1038 21.9546 14.9933C21.9633 14.8827 21.9976 14.7756 22.0547 14.6806L23.4866 12.3251L22.2552 11.0937L19.8997 12.5256C19.8047 12.5827 19.6976 12.617 19.5871 12.6257C19.4765 12.6344 19.3654 12.6173 19.2626 12.5757C19.1582 12.5325 19.0655 12.4653 18.9921 12.3794C18.9187 12.2935 18.8666 12.1915 18.8402 12.0817L18.1529 9.4041H16.406L15.7401 12.0602C15.7137 12.1701 15.6617 12.2721 15.5882 12.3579C15.5148 12.4438 15.4221 12.511 15.3177 12.5542C15.2149 12.5958 15.1038 12.6129 14.9933 12.6042C14.8827 12.5955 14.7756 12.5613 14.6806 12.5041L12.3251 11.0722L11.0937 12.3036L12.5256 14.6591C12.5827 14.7542 12.617 14.8612 12.6257 14.9718C12.6344 15.0823 12.6173 15.1934 12.5757 15.2963C12.5325 15.4007 12.4653 15.4933 12.3794 15.5668C12.2935 15.6402 12.1915 15.6922 12.0817 15.7187L9.4041 16.406V18.1529L12.0602 18.8187C12.1701 18.8451 12.2721 18.8972 12.3579 18.9706C12.4438 19.044 12.511 19.1367 12.5542 19.2411C12.5958 19.3439 12.6129 19.455 12.6042 19.5656C12.5955 19.6762 12.5613 19.7832 12.5041 19.8783L11.0722 22.2337L12.3036 23.4651L14.6591 22.0332C14.7542 21.9761 14.8612 21.9418 14.9718 21.9331C15.0823 21.9244 15.1934 21.9415 15.2963 21.9831C15.4007 22.0263 15.4933 22.0936 15.5668 22.1794C15.6402 22.2653 15.6922 22.3673 15.7187 22.4771L16.406 25.1547Z" fill="#371CF5"/>
<path d="M30.1663 17.9955H28.0184V16.5636H30.1663C30.9258 16.5636 31.6542 16.2619 32.1912 15.7249C32.7283 15.1878 33.03 14.4594 33.03 13.6999V7.97238C33.03 7.21287 32.7283 6.48446 32.1912 5.94741C31.6542 5.41035 30.9258 5.10863 30.1663 5.10863H10.8359V3.67676H30.1663C31.3055 3.67676 32.3981 4.12933 33.2037 4.93492C34.0093 5.7405 34.4619 6.83311 34.4619 7.97238V13.6999C34.4619 14.8392 34.0093 15.9318 33.2037 16.7373C32.3981 17.5429 31.3055 17.9955 30.1663 17.9955Z" fill="#1E0F00"/>
<path d="M23.7229 30.8822H4.39255C3.25328 30.8822 2.16067 30.4297 1.35508 29.6241C0.549497 28.8185 0.0969238 27.7259 0.0969238 26.5866L0.0969238 20.8591C0.0969238 19.7198 0.549497 18.6272 1.35508 17.8216C2.16067 17.016 3.25328 16.5635 4.39255 16.5635H6.54036V17.9954H4.39255C3.63303 17.9954 2.90463 18.2971 2.36757 18.8341C1.83051 19.3712 1.5288 20.0996 1.5288 20.8591V26.5866C1.5288 27.3461 1.83051 28.0745 2.36757 28.6116C2.90463 29.1486 3.63303 29.4504 4.39255 29.4504H23.7229V30.8822Z" fill="#1E0F00"/>
<path d="M5.10855 6.54041C3.52632 6.54041 2.2448 4.93671 2.2448 2.96072C2.2134 2.57669 2.26592 2.19042 2.39874 1.82873C2.53155 1.46703 2.74147 1.13855 3.01392 0.866097C3.28638 0.59364 3.61485 0.383723 3.97655 0.250911C4.33825 0.118098 4.72452 0.0655693 5.10855 0.0969696C5.49258 0.0655693 5.87884 0.118098 6.24054 0.250911C6.60224 0.383723 6.93071 0.59364 7.20317 0.866097C7.47563 1.13855 7.68554 1.46703 7.81836 1.82873C7.95117 2.19042 8.0037 2.57669 7.9723 2.96072C7.9723 4.93671 6.69077 6.54041 5.10855 6.54041ZM5.10855 1.52884C3.82702 1.52884 3.67667 2.34501 3.67667 2.96072C3.67667 4.10622 4.34249 5.10853 5.10855 5.10853C5.8746 5.10853 6.54042 4.10622 6.54042 2.96072C6.54042 2.34501 6.39007 1.52884 5.10855 1.52884Z" fill="#1E0F00"/>
<path d="M10.12 9.40427H8.68817V7.75045C8.69065 7.57989 8.63215 7.41405 8.52321 7.2828C8.41427 7.15154 8.26204 7.06349 8.09395 7.03451L5.10849 6.54052L2.12303 7.04167C1.95493 7.07065 1.8027 7.1587 1.69376 7.28996C1.58482 7.42121 1.52632 7.58705 1.5288 7.75761V9.40427H0.0969238V7.75045C0.0985678 7.24283 0.279953 6.75219 0.608907 6.36558C0.93786 5.97896 1.39312 5.72135 1.89393 5.63844L4.99394 5.10864H5.22304L8.32305 5.63128C8.82507 5.71439 9.28127 5.97304 9.61038 6.36115C9.93948 6.74925 10.1201 7.2416 10.12 7.75045V9.40427Z" fill="#1E0F00"/>
<path d="M29.4503 31.5983C27.8681 31.5983 26.5866 29.9946 26.5866 28.0186C26.5552 27.6346 26.6077 27.2483 26.7405 26.8866C26.8733 26.5249 27.0833 26.1964 27.3557 25.924C27.6282 25.6515 27.9567 25.4416 28.3183 25.3088C28.68 25.176 29.0663 25.1234 29.4503 25.1548C29.8344 25.1234 30.2206 25.176 30.5823 25.3088C30.944 25.4416 31.2725 25.6515 31.545 25.924C31.8174 26.1964 32.0273 26.5249 32.1602 26.8866C32.293 27.2483 32.3455 27.6346 32.3141 28.0186C32.3141 29.9946 31.0326 31.5983 29.4503 31.5983ZM29.4503 26.5867C28.1688 26.5867 28.0185 27.4029 28.0185 28.0186C28.0185 29.1641 28.6843 30.1664 29.4503 30.1664C30.2164 30.1664 30.8822 29.1641 30.8822 28.0186C30.8822 27.4029 30.7319 26.5867 29.4503 26.5867Z" fill="#1E0F00"/>
<path d="M34.462 34.4619H33.0301V32.8081C33.0326 32.6375 32.9741 32.4717 32.8651 32.3404C32.7562 32.2092 32.604 32.1211 32.4359 32.0921L29.4504 31.5981L26.4649 32.0993C26.2968 32.1283 26.1446 32.2163 26.0357 32.3476C25.9267 32.4788 25.8682 32.6447 25.8707 32.8152V34.4619H24.4388V32.8081C24.4405 32.3004 24.6219 31.8098 24.9508 31.4232C25.2798 31.0366 25.735 30.779 26.2358 30.6961L29.3359 30.1663H29.565L32.665 30.6889C33.167 30.772 33.6232 31.0307 33.9523 31.4188C34.2814 31.8069 34.462 32.2992 34.462 32.8081V34.4619Z" fill="#1E0F00"/>
</g>
<defs>
<clipPath id="clip0_49_496">
<rect width="34.365" height="34.365" fill="white" transform="translate(0.0969238 0.0969238)"/>
</clipPath>
</defs>
</svg>
