<svg width="75" height="75" viewBox="0 0 75 75" fill="none" xmlns="http://www.w3.org/2000/svg">
<g clip-path="url(#clip0_49_469)">
<path d="M55.5 55.0001H20.5C19.837 55.0001 19.2011 54.7367 18.7322 54.2678C18.2634 53.799 18 53.1631 18 52.5001V29.1667C18 28.5037 18.2634 27.8678 18.7322 27.399C19.2011 26.9301 19.837 26.6667 20.5 26.6667H31.3333V28.3334H20.5C20.279 28.3334 20.067 28.4212 19.9107 28.5775C19.7545 28.7338 19.6667 28.9457 19.6667 29.1667V52.5001C19.6667 52.7211 19.7545 52.9331 19.9107 53.0893C20.067 53.2456 20.279 53.3334 20.5 53.3334H55.5C55.721 53.3334 55.933 53.2456 56.0893 53.0893C56.2455 52.9331 56.3333 52.7211 56.3333 52.5001V29.1667C56.3333 28.9457 56.2455 28.7338 56.0893 28.5775C55.933 28.4212 55.721 28.3334 55.5 28.3334H44.6667V26.6667H55.5C56.163 26.6667 56.7989 26.9301 57.2678 27.399C57.7366 27.8678 58 28.5037 58 29.1667V52.5001C58 53.1631 57.7366 53.799 57.2678 54.2678C56.7989 54.7367 56.163 55.0001 55.5 55.0001Z" fill="#1E0F00"/>
<path d="M44.6667 30.8333H31.3333C31.1123 30.8333 30.9004 30.7455 30.7441 30.5893C30.5878 30.433 30.5 30.221 30.5 30V22.5C30.5 20.5109 31.2902 18.6032 32.6967 17.1967C34.1032 15.7902 36.0109 15 38 15C39.9891 15 41.8968 15.7902 43.3033 17.1967C44.7098 18.6032 45.5 20.5109 45.5 22.5V30C45.5 30.221 45.4122 30.433 45.2559 30.5893C45.0996 30.7455 44.8877 30.8333 44.6667 30.8333ZM32.1667 29.1667H43.8333V22.5C43.8333 20.9529 43.2188 19.4692 42.1248 18.3752C41.0308 17.2812 39.5471 16.6667 38 16.6667C36.4529 16.6667 34.9692 17.2812 33.8752 18.3752C32.7812 19.4692 32.1667 20.9529 32.1667 22.5V29.1667Z" fill="#1E0F00"/>
<path d="M48.8334 49.1667H41.3334V50.8334H48.8334V49.1667Z" fill="#1E0F00"/>
<path d="M53.8333 45H47.1666V46.6667H53.8333V45Z" fill="#1E0F00"/>
<path d="M45.5 45H41.3334V46.6667H45.5V45Z" fill="#1E0F00"/>
<path d="M51.3334 40.8333H41.3334V42.4999H51.3334V40.8333Z" fill="#1E0F00"/>
<path d="M53.8333 36.6667H49.6666V38.3334H53.8333V36.6667Z" fill="#1E0F00"/>
<path d="M48 36.6667H41.3334V38.3334H48V36.6667Z" fill="#1E0F00"/>
<path d="M30.5 43C28.0218 43 26.0106 40.8014 26.0106 38.0962C25.9679 37.5495 26.0548 37.0009 26.2653 36.4875C26.4758 35.9741 26.8051 35.5078 27.2308 35.1203C27.6565 34.7328 28.1687 34.4331 28.7327 34.2415C29.2968 34.0498 29.8995 33.9708 30.5 34.0096C31.1005 33.9708 31.7032 34.0498 32.2673 34.2415C32.8313 34.4331 33.3435 34.7328 33.7692 35.1203C34.1949 35.5078 34.5242 35.9741 34.7347 36.4875C34.9452 37.0009 35.0321 37.5495 34.9894 38.0962C34.9894 40.8014 32.9782 43 30.5 43ZM30.5 35.6442C30.1365 35.608 29.7688 35.6465 29.4239 35.7569C29.079 35.8673 28.7657 36.0468 28.5071 36.2821C28.2486 36.5175 28.0514 36.8026 27.9301 37.1166C27.8088 37.4306 27.7665 37.7653 27.8063 38.0962C27.8063 39.9024 29.0185 41.3654 30.5 41.3654C31.9815 41.3654 33.1937 39.9024 33.1937 38.0962C33.2335 37.7653 33.1912 37.4306 33.0699 37.1166C32.9486 36.8026 32.7514 36.5175 32.4929 36.2821C32.2343 36.0468 31.921 35.8673 31.5761 35.7569C31.2312 35.6465 30.8635 35.608 30.5 35.6442Z" fill="#371CF5"/>
<path d="M27.1667 45.8333H25.5V50.8333H27.1667V45.8333Z" fill="#371CF5"/>
<path d="M39 51H37.3V45.1667C37.3 44.5036 37.0313 43.8677 36.5531 43.3989C36.0749 42.9301 35.4263 42.6667 34.75 42.6667H26.25C25.5737 42.6667 24.9251 42.9301 24.4469 43.3989C23.9687 43.8677 23.7 44.5036 23.7 45.1667V51H22V45.1667C22 44.0616 22.4478 43.0018 23.2448 42.2204C24.0418 41.439 25.1228 41 26.25 41H34.75C35.8772 41 36.9582 41.439 37.7552 42.2204C38.5522 43.0018 39 44.0616 39 45.1667V51Z" fill="#371CF5"/>
<path d="M35 46H34V51H35V46Z" fill="#371CF5"/>
<path d="M31.3333 48.3333H29.6666V49.9999H31.3333V48.3333Z" fill="#371CF5"/>
<path d="M31.3333 45H29.6666V46.6667H31.3333V45Z" fill="#371CF5"/>
<path d="M38 25.8334C37.3407 25.8334 36.6962 25.6379 36.1481 25.2716C35.5999 24.9054 35.1727 24.3848 34.9204 23.7757C34.6681 23.1666 34.6021 22.4964 34.7307 21.8498C34.8593 21.2032 35.1768 20.6092 35.6429 20.1431C36.1091 19.6769 36.7031 19.3594 37.3497 19.2308C37.9963 19.1022 38.6665 19.1682 39.2756 19.4205C39.8847 19.6728 40.4053 20.1 40.7715 20.6482C41.1378 21.1963 41.3333 21.8408 41.3333 22.5001C41.3333 23.3841 40.9821 24.232 40.357 24.8571C39.7319 25.4822 38.884 25.8334 38 25.8334ZM38 20.8334C37.6703 20.8334 37.3481 20.9312 37.074 21.1143C36.7999 21.2974 36.5863 21.5577 36.4602 21.8623C36.334 22.1668 36.301 22.5019 36.3653 22.8252C36.4296 23.1485 36.5884 23.4455 36.8215 23.6786C37.0545 23.9117 37.3515 24.0704 37.6748 24.1347C37.9981 24.199 38.3332 24.166 38.6378 24.0399C38.9423 23.9137 39.2026 23.7001 39.3857 23.426C39.5689 23.152 39.6666 22.8297 39.6666 22.5001C39.6666 22.0581 39.491 21.6341 39.1785 21.3216C38.8659 21.009 38.442 20.8334 38 20.8334Z" fill="#1E0F00"/>
</g>
<rect x="0.5" y="0.5" width="74" height="74" rx="11.5" stroke="#CFCECF"/>
<defs>
<clipPath id="clip0_49_469">
<rect width="40" height="40" fill="white" transform="translate(18 15)"/>
</clipPath>
</defs>
</svg>
