<svg width="224" height="224" viewBox="0 0 224 224" fill="none" xmlns="http://www.w3.org/2000/svg">
<g filter="url(#filter0_d_49_218)">
<rect x="15" y="11" width="194.118" height="195" rx="3.52941" fill="white"/>
</g>
<rect x="25.5879" y="97.4707" width="169.412" height="40.5882" rx="10.5882" fill="#371CF5"/>
<path d="M36.0465 38.647H33.3167V30.9464H36.0691C36.8437 30.9464 37.5104 31.1006 38.0694 31.4089C38.6284 31.7147 39.0583 32.1547 39.3591 32.7287C39.6624 33.3027 39.8141 33.9896 39.8141 34.7892C39.8141 35.5913 39.6624 36.2807 39.3591 36.8572C39.0583 37.4337 38.6259 37.8762 38.0619 38.1845C37.5004 38.4928 36.8286 38.647 36.0465 38.647ZM34.9448 37.252H35.9788C36.4601 37.252 36.865 37.1668 37.1933 36.9963C37.5242 36.8234 37.7724 36.5564 37.9378 36.1954C38.1058 35.832 38.1897 35.3632 38.1897 34.7892C38.1897 34.2202 38.1058 33.7552 37.9378 33.3942C37.7724 33.0333 37.5255 32.7675 37.1971 32.5971C36.8687 32.4266 36.4639 32.3414 35.9826 32.3414H34.9448V37.252ZM42.6369 38.756C42.2684 38.756 41.9401 38.6921 41.6518 38.5643C41.3635 38.4339 41.1354 38.2421 40.9675 37.989C40.802 37.7333 40.7193 37.4149 40.7193 37.0339C40.7193 36.7131 40.7782 36.4436 40.896 36.2255C41.0138 36.0074 41.1743 35.832 41.3773 35.6991C41.5803 35.5663 41.811 35.466 42.0691 35.3983C42.3298 35.3306 42.6031 35.283 42.8888 35.2554C43.2247 35.2203 43.4955 35.1877 43.701 35.1577C43.9065 35.1251 44.0557 35.0775 44.1484 35.0148C44.2412 34.9521 44.2876 34.8594 44.2876 34.7365V34.714C44.2876 34.4758 44.2124 34.2916 44.062 34.1613C43.9141 34.0309 43.7035 33.9657 43.4303 33.9657C43.142 33.9657 42.9126 34.0297 42.7422 34.1575C42.5717 34.2828 42.4589 34.4408 42.4038 34.6313L40.9223 34.5109C40.9975 34.16 41.1454 33.8567 41.366 33.601C41.5866 33.3428 41.8711 33.1448 42.2195 33.0069C42.5705 32.8666 42.9766 32.7964 43.4378 32.7964C43.7587 32.7964 44.0657 32.834 44.359 32.9092C44.6548 32.9844 44.9167 33.1009 45.1449 33.2589C45.3755 33.4168 45.5572 33.6198 45.6901 33.868C45.8229 34.1136 45.8893 34.4082 45.8893 34.7516V38.647H44.3703V37.8461H44.3252C44.2324 38.0266 44.1083 38.1857 43.9529 38.3236C43.7975 38.459 43.6108 38.5655 43.3927 38.6432C43.1746 38.7184 42.9227 38.756 42.6369 38.756ZM43.0956 37.6506C43.3313 37.6506 43.5393 37.6042 43.7198 37.5114C43.9003 37.4162 44.0419 37.2883 44.1447 37.1279C44.2475 36.9675 44.2988 36.7858 44.2988 36.5827V35.9698C44.2487 36.0024 44.1798 36.0325 44.092 36.0601C44.0068 36.0851 43.9103 36.109 43.8025 36.1315C43.6947 36.1516 43.5869 36.1704 43.4792 36.1879C43.3714 36.203 43.2736 36.2167 43.1859 36.2293C42.9979 36.2568 42.8337 36.3007 42.6933 36.3609C42.5529 36.421 42.4439 36.5025 42.3662 36.6053C42.2885 36.7055 42.2496 36.8309 42.2496 36.9813C42.2496 37.1994 42.3286 37.3661 42.4865 37.4814C42.6469 37.5942 42.85 37.6506 43.0956 37.6506ZM51.9373 34.5185L50.4709 34.6087C50.4459 34.4834 50.392 34.3706 50.3092 34.2703C50.2265 34.1675 50.1175 34.0861 49.9821 34.0259C49.8493 33.9632 49.6901 33.9319 49.5046 33.9319C49.2564 33.9319 49.0471 33.9845 48.8767 34.0898C48.7062 34.1926 48.621 34.3305 48.621 34.5034C48.621 34.6413 48.6761 34.7579 48.7864 34.8531C48.8967 34.9484 49.086 35.0248 49.3542 35.0825L50.3995 35.293C50.961 35.4083 51.3796 35.5938 51.6553 35.8495C51.9311 36.1052 52.0689 36.4411 52.0689 36.8572C52.0689 37.2357 51.9574 37.5678 51.7343 37.8536C51.5137 38.1394 51.2104 38.3625 50.8244 38.5229C50.4408 38.6808 49.9984 38.7598 49.4971 38.7598C48.7325 38.7598 48.1234 38.6006 47.6697 38.2823C47.2185 37.9614 46.9541 37.5252 46.8763 36.9738L48.4518 36.891C48.4994 37.1242 48.6147 37.3021 48.7977 37.425C48.9807 37.5453 49.2151 37.6054 49.5008 37.6054C49.7816 37.6054 50.0072 37.5516 50.1776 37.4438C50.3506 37.3335 50.4383 37.1918 50.4408 37.0189C50.4383 36.8735 50.3769 36.7544 50.2566 36.6617C50.1363 36.5664 49.9508 36.4937 49.7001 36.4436L48.7 36.2443C48.136 36.1315 47.7161 35.936 47.4403 35.6578C47.1671 35.3795 47.0305 35.0248 47.0305 34.5937C47.0305 34.2227 47.1308 33.9031 47.3313 33.6349C47.5343 33.3666 47.8189 33.1598 48.1848 33.0145C48.5533 32.8691 48.9845 32.7964 49.4783 32.7964C50.2077 32.7964 50.7818 32.9505 51.2004 33.2589C51.6215 33.5672 51.8672 33.987 51.9373 34.5185ZM54.6793 35.3081V38.647H53.0776V30.9464H54.6342V33.8905H54.7019C54.8322 33.5496 55.0428 33.2827 55.3336 33.0897C55.6244 32.8941 55.9891 32.7964 56.4278 32.7964C56.8288 32.7964 57.1785 32.8841 57.4768 33.0596C57.7776 33.2325 58.0107 33.4819 58.1762 33.8078C58.3441 34.1312 58.4268 34.5185 58.4243 34.9697V38.647H56.8226V35.2554C56.8251 34.8995 56.7348 34.6225 56.5518 34.4245C56.3714 34.2264 56.1182 34.1274 55.7923 34.1274C55.5742 34.1274 55.3812 34.1738 55.2133 34.2665C55.0478 34.3593 54.9175 34.4946 54.8222 34.6726C54.7295 34.8481 54.6818 35.0599 54.6793 35.3081ZM59.715 38.647V30.9464H61.3167V33.8417H61.3656C61.4358 33.6862 61.5373 33.5283 61.6702 33.3679C61.8055 33.205 61.981 33.0696 62.1966 32.9618C62.4147 32.8515 62.6854 32.7964 63.0087 32.7964C63.4299 32.7964 63.8184 32.9067 64.1743 33.1273C64.5303 33.3453 64.8148 33.675 65.0279 34.1161C65.2409 34.5548 65.3475 35.105 65.3475 35.7668C65.3475 36.411 65.2434 36.955 65.0354 37.3986C64.8298 37.8398 64.5491 38.1745 64.1931 38.4026C63.8397 38.6282 63.4436 38.741 63.005 38.741C62.6941 38.741 62.4297 38.6896 62.2116 38.5868C61.996 38.484 61.8193 38.3549 61.6814 38.1995C61.5436 38.0416 61.4383 37.8824 61.3656 37.722H61.2942V38.647H59.715ZM61.2829 35.7593C61.2829 36.1027 61.3305 36.4022 61.4258 36.6579C61.521 36.9136 61.6589 37.1129 61.8394 37.2558C62.0199 37.3961 62.2392 37.4663 62.4974 37.4663C62.7581 37.4663 62.9787 37.3949 63.1591 37.252C63.3396 37.1066 63.4762 36.9061 63.569 36.6504C63.6642 36.3922 63.7119 36.0952 63.7119 35.7593C63.7119 35.4259 63.6655 35.1326 63.5727 34.8794C63.48 34.6263 63.3434 34.4282 63.1629 34.2853C62.9824 34.1425 62.7606 34.071 62.4974 34.071C62.2367 34.071 62.0161 34.14 61.8356 34.2778C61.6576 34.4157 61.521 34.6112 61.4258 34.8644C61.3305 35.1176 61.2829 35.4159 61.2829 35.7593ZM69.0257 38.7598C68.4417 38.7598 67.9366 38.6357 67.5104 38.3875C67.0868 38.1369 66.7597 37.7884 66.5291 37.3422C66.2984 36.8935 66.1831 36.3734 66.1831 35.7818C66.1831 35.1852 66.2984 34.6639 66.5291 34.2177C66.7597 33.769 67.0868 33.4205 67.5104 33.1724C67.9366 32.9217 68.4417 32.7964 69.0257 32.7964C69.6098 32.7964 70.1136 32.9217 70.5373 33.1724C70.9634 33.4205 71.2918 33.769 71.5224 34.2177C71.753 34.6639 71.8683 35.1852 71.8683 35.7818C71.8683 36.3734 71.753 36.8935 71.5224 37.3422C71.2918 37.7884 70.9634 38.1369 70.5373 38.3875C70.1136 38.6357 69.6098 38.7598 69.0257 38.7598ZM69.0332 37.519C69.2989 37.519 69.5208 37.4438 69.6988 37.2934C69.8767 37.1405 70.0108 36.9324 70.1011 36.6692C70.1938 36.406 70.2402 36.1064 70.2402 35.7706C70.2402 35.4347 70.1938 35.1351 70.1011 34.8719C70.0108 34.6087 69.8767 34.4006 69.6988 34.2477C69.5208 34.0948 69.2989 34.0184 69.0332 34.0184C68.765 34.0184 68.5394 34.0948 68.3564 34.2477C68.176 34.4006 68.0393 34.6087 67.9466 34.8719C67.8564 35.1351 67.8112 35.4347 67.8112 35.7706C67.8112 36.1064 67.8564 36.406 67.9466 36.6692C68.0393 36.9324 68.176 37.1405 68.3564 37.2934C68.5394 37.4438 68.765 37.519 69.0332 37.519ZM74.5567 38.756C74.1882 38.756 73.8599 38.6921 73.5716 38.5643C73.2833 38.4339 73.0552 38.2421 72.8873 37.989C72.7218 37.7333 72.6391 37.4149 72.6391 37.0339C72.6391 36.7131 72.698 36.4436 72.8158 36.2255C72.9336 36.0074 73.0941 35.832 73.2971 35.6991C73.5002 35.5663 73.7308 35.466 73.989 35.3983C74.2497 35.3306 74.5229 35.283 74.8086 35.2554C75.1445 35.2203 75.4153 35.1877 75.6208 35.1577C75.8264 35.1251 75.9755 35.0775 76.0683 35.0148C76.161 34.9521 76.2074 34.8594 76.2074 34.7365V34.714C76.2074 34.4758 76.1322 34.2916 75.9818 34.1613C75.8339 34.0309 75.6233 33.9657 75.3501 33.9657C75.0618 33.9657 74.8325 34.0297 74.662 34.1575C74.4915 34.2828 74.3787 34.4408 74.3236 34.6313L72.8422 34.5109C72.9174 34.16 73.0652 33.8567 73.2858 33.601C73.5064 33.3428 73.7909 33.1448 74.1394 33.0069C74.4903 32.8666 74.8964 32.7964 75.3576 32.7964C75.6785 32.7964 75.9855 32.834 76.2788 32.9092C76.5746 32.9844 76.8366 33.1009 77.0647 33.2589C77.2953 33.4168 77.477 33.6198 77.6099 33.868C77.7427 34.1136 77.8091 34.4082 77.8091 34.7516V38.647H76.2901V37.8461H76.245C76.1522 38.0266 76.0281 38.1857 75.8727 38.3236C75.7173 38.459 75.5306 38.5655 75.3125 38.6432C75.0944 38.7184 74.8425 38.756 74.5567 38.756ZM75.0154 37.6506C75.2511 37.6506 75.4591 37.6042 75.6396 37.5114C75.8201 37.4162 75.9617 37.2883 76.0645 37.1279C76.1673 36.9675 76.2187 36.7858 76.2187 36.5827V35.9698C76.1685 36.0024 76.0996 36.0325 76.0119 36.0601C75.9266 36.0851 75.8301 36.109 75.7223 36.1315C75.6145 36.1516 75.5068 36.1704 75.399 36.1879C75.2912 36.203 75.1934 36.2167 75.1057 36.2293C74.9177 36.2568 74.7535 36.3007 74.6131 36.3609C74.4727 36.421 74.3637 36.5025 74.286 36.6053C74.2083 36.7055 74.1694 36.8309 74.1694 36.9813C74.1694 37.1994 74.2484 37.3661 74.4063 37.4814C74.5667 37.5942 74.7698 37.6506 75.0154 37.6506ZM79.0518 38.647V32.8716H80.6047V33.8793H80.6649C80.7702 33.5208 80.9469 33.2501 81.195 33.0671C81.4432 32.8816 81.729 32.7889 82.0523 32.7889C82.1325 32.7889 82.219 32.7939 82.3118 32.8039C82.4045 32.8139 82.486 32.8277 82.5562 32.8453V34.2665C82.481 34.244 82.377 34.2239 82.2441 34.2064C82.1112 34.1888 81.9897 34.1801 81.8794 34.1801C81.6437 34.1801 81.4332 34.2314 81.2477 34.3342C81.0647 34.4345 80.9193 34.5749 80.8115 34.7553C80.7062 34.9358 80.6536 35.1439 80.6536 35.3795V38.647H79.0518ZM85.2437 38.741C84.805 38.741 84.4077 38.6282 84.0517 38.4026C83.6983 38.1745 83.4175 37.8398 83.2095 37.3986C83.0039 36.955 82.9012 36.411 82.9012 35.7668C82.9012 35.105 83.0077 34.5548 83.2208 34.1161C83.4338 33.675 83.7171 33.3453 84.0705 33.1273C84.4265 32.9067 84.8163 32.7964 85.2399 32.7964C85.5633 32.7964 85.8327 32.8515 86.0483 32.9618C86.2664 33.0696 86.4419 33.205 86.5747 33.3679C86.7101 33.5283 86.8128 33.6862 86.883 33.8417H86.9319V30.9464H88.5299V38.647H86.9507V37.722H86.883C86.8078 37.8824 86.7013 38.0416 86.5634 38.1995C86.4281 38.3549 86.2513 38.484 86.0333 38.5868C85.8177 38.6896 85.5545 38.741 85.2437 38.741ZM85.7513 37.4663C86.0095 37.4663 86.2275 37.3961 86.4055 37.2558C86.586 37.1129 86.7239 36.9136 86.8191 36.6579C86.9169 36.4022 86.9658 36.1027 86.9658 35.7593C86.9658 35.4159 86.9181 35.1176 86.8229 34.8644C86.7276 34.6112 86.5897 34.4157 86.4093 34.2778C86.2288 34.14 86.0095 34.071 85.7513 34.071C85.4881 34.071 85.2662 34.1425 85.0857 34.2853C84.9053 34.4282 84.7686 34.6263 84.6759 34.8794C84.5831 35.1326 84.5368 35.4259 84.5368 35.7593C84.5368 36.0952 84.5831 36.3922 84.6759 36.6504C84.7712 36.9061 84.9078 37.1066 85.0857 37.252C85.2662 37.3949 85.4881 37.4663 85.7513 37.4663ZM94.6522 34.5185L93.1858 34.6087C93.1607 34.4834 93.1068 34.3706 93.0241 34.2703C92.9414 34.1675 92.8323 34.0861 92.697 34.0259C92.5641 33.9632 92.4049 33.9319 92.2194 33.9319C91.9713 33.9319 91.762 33.9845 91.5915 34.0898C91.4211 34.1926 91.3358 34.3305 91.3358 34.5034C91.3358 34.6413 91.391 34.7579 91.5013 34.8531C91.6116 34.9484 91.8008 35.0248 92.069 35.0825L93.1143 35.293C93.6758 35.4083 94.0944 35.5938 94.3702 35.8495C94.6459 36.1052 94.7838 36.4411 94.7838 36.8572C94.7838 37.2357 94.6722 37.5678 94.4491 37.8536C94.2286 38.1394 93.9252 38.3625 93.5392 38.5229C93.1557 38.6808 92.7133 38.7598 92.2119 38.7598C91.4474 38.7598 90.8383 38.6006 90.3846 38.2823C89.9333 37.9614 89.6689 37.5252 89.5912 36.9738L91.1666 36.891C91.2143 37.1242 91.3296 37.3021 91.5126 37.425C91.6955 37.5453 91.9299 37.6054 92.2157 37.6054C92.4964 37.6054 92.722 37.5516 92.8925 37.4438C93.0655 37.3335 93.1532 37.1918 93.1557 37.0189C93.1532 36.8735 93.0918 36.7544 92.9715 36.6617C92.8511 36.5664 92.6656 36.4937 92.415 36.4436L91.4148 36.2443C90.8508 36.1315 90.4309 35.936 90.1552 35.6578C89.882 35.3795 89.7453 35.0248 89.7453 34.5937C89.7453 34.2227 89.8456 33.9031 90.0462 33.6349C90.2492 33.3666 90.5337 33.1598 90.8997 33.0145C91.2682 32.8691 91.6993 32.7964 92.1931 32.7964C92.9226 32.7964 93.4966 32.9505 93.9152 33.2589C94.3363 33.5672 94.582 33.987 94.6522 34.5185Z" fill="#1A1A1A"/>
<path d="M68.7823 120.941V111.957H70.6817V115.664H74.5376V111.957H76.4327V120.941H74.5376V117.23H70.6817V120.941H68.7823ZM77.9636 120.941V114.203H79.8324V120.941H77.9636ZM78.9024 113.335C78.6246 113.335 78.3862 113.243 78.1873 113.059C77.9914 112.871 77.8934 112.648 77.8934 112.387C77.8934 112.13 77.9914 111.909 78.1873 111.725C78.3862 111.538 78.6246 111.444 78.9024 111.444C79.1802 111.444 79.4171 111.538 79.613 111.725C79.8119 111.909 79.9113 112.13 79.9113 112.387C79.9113 112.648 79.8119 112.871 79.613 113.059C79.4171 113.243 79.1802 113.335 78.9024 113.335ZM81.3293 120.941V114.203H83.141V115.379H83.2112C83.334 114.961 83.5402 114.645 83.8297 114.432C84.1193 114.215 84.4526 114.107 84.8299 114.107C84.9235 114.107 85.0244 114.113 85.1326 114.124C85.2408 114.136 85.3358 114.152 85.4177 114.173V115.831C85.33 115.805 85.2086 115.781 85.0536 115.761C84.8986 115.74 84.7568 115.73 84.6281 115.73C84.3532 115.73 84.1076 115.79 83.8912 115.91C83.6777 116.027 83.508 116.191 83.3823 116.401C83.2595 116.612 83.1981 116.854 83.1981 117.129V120.941H81.3293ZM86.3839 120.941V114.203H88.2526V120.941H86.3839ZM87.3226 113.335C87.0448 113.335 86.8065 113.243 86.6076 113.059C86.4117 112.871 86.3137 112.648 86.3137 112.387C86.3137 112.13 86.4117 111.909 86.6076 111.725C86.8065 111.538 87.0448 111.444 87.3226 111.444C87.6005 111.444 87.8374 111.538 88.0333 111.725C88.2322 111.909 88.3316 112.13 88.3316 112.387C88.3316 112.648 88.2322 112.871 88.0333 113.059C87.8374 113.243 87.6005 113.335 87.3226 113.335ZM91.6183 117.046V120.941H89.7496V114.203H91.5306V115.392H91.6095C91.7587 115 92.0087 114.69 92.3597 114.462C92.7106 114.231 93.1361 114.116 93.6362 114.116C94.1041 114.116 94.5121 114.218 94.8601 114.423C95.2081 114.627 95.4786 114.92 95.6716 115.3C95.8646 115.677 95.9611 116.128 95.9611 116.651V120.941H94.0924V116.985C94.0953 116.572 93.9901 116.251 93.7766 116.02C93.5631 115.786 93.2692 115.669 92.8948 115.669C92.6433 115.669 92.4211 115.723 92.2281 115.831C92.038 115.939 91.8888 116.097 91.7806 116.305C91.6753 116.509 91.6212 116.756 91.6183 117.046ZM100.47 123.609C99.8642 123.609 99.3451 123.525 98.9123 123.358C98.4824 123.195 98.1402 122.971 97.8858 122.687C97.6314 122.404 97.4662 122.085 97.3901 121.731L99.1185 121.499C99.1711 121.633 99.2545 121.759 99.3685 121.876C99.4826 121.993 99.6332 122.086 99.8204 122.157C100.01 122.23 100.241 122.266 100.513 122.266C100.92 122.266 101.255 122.167 101.518 121.968C101.784 121.772 101.917 121.443 101.917 120.981V119.748H101.838C101.756 119.935 101.634 120.112 101.47 120.279C101.306 120.446 101.095 120.582 100.838 120.687C100.581 120.792 100.274 120.845 99.9169 120.845C99.4109 120.845 98.9503 120.728 98.535 120.494C98.1227 120.257 97.7937 119.896 97.548 119.41C97.3053 118.922 97.1839 118.305 97.1839 117.559C97.1839 116.796 97.3082 116.158 97.5568 115.647C97.8054 115.135 98.1359 114.752 98.5482 114.497C98.9635 114.243 99.4182 114.116 99.9125 114.116C100.29 114.116 100.606 114.18 100.86 114.309C101.114 114.434 101.319 114.592 101.474 114.782C101.632 114.97 101.753 115.154 101.838 115.335H101.908V114.203H103.764V121.007C103.764 121.58 103.624 122.06 103.343 122.446C103.062 122.832 102.673 123.122 102.176 123.315C101.682 123.511 101.113 123.609 100.47 123.609ZM100.509 119.441C100.81 119.441 101.065 119.367 101.272 119.217C101.483 119.065 101.644 118.849 101.755 118.568C101.869 118.285 101.926 117.945 101.926 117.55C101.926 117.156 101.87 116.814 101.759 116.524C101.648 116.232 101.487 116.005 101.277 115.844C101.066 115.683 100.81 115.603 100.509 115.603C100.202 115.603 99.9432 115.686 99.7326 115.853C99.5221 116.017 99.3627 116.245 99.2545 116.537C99.1463 116.83 99.0922 117.167 99.0922 117.55C99.0922 117.939 99.1463 118.276 99.2545 118.559C99.3656 118.84 99.525 119.058 99.7326 119.213C99.9432 119.365 100.202 119.441 100.509 119.441ZM109.694 120.941H107.658L110.76 111.957H113.207L116.304 120.941H114.269L112.019 114.01H111.948L109.694 120.941ZM109.566 117.41H114.374V118.893H109.566V117.41ZM120.081 121.073C119.391 121.073 118.798 120.927 118.3 120.634C117.806 120.339 117.426 119.93 117.16 119.406C116.897 118.883 116.765 118.28 116.765 117.599C116.765 116.909 116.898 116.303 117.164 115.783C117.433 115.259 117.815 114.851 118.309 114.559C118.803 114.263 119.391 114.116 120.073 114.116C120.66 114.116 121.175 114.222 121.617 114.436C122.058 114.649 122.408 114.949 122.665 115.335C122.923 115.721 123.064 116.175 123.091 116.695H121.327C121.278 116.359 121.146 116.088 120.932 115.884C120.722 115.676 120.446 115.572 120.103 115.572C119.814 115.572 119.561 115.651 119.344 115.809C119.131 115.964 118.964 116.191 118.844 116.489C118.724 116.787 118.665 117.148 118.665 117.572C118.665 118.002 118.723 118.368 118.84 118.669C118.96 118.97 119.128 119.2 119.344 119.358C119.561 119.516 119.814 119.595 120.103 119.595C120.317 119.595 120.508 119.551 120.678 119.463C120.851 119.375 120.992 119.248 121.104 119.081C121.218 118.912 121.292 118.709 121.327 118.472H123.091C123.061 118.986 122.921 119.44 122.67 119.832C122.421 120.221 122.077 120.525 121.639 120.744C121.2 120.963 120.681 121.073 120.081 121.073ZM127.871 114.203V115.607H123.813V114.203H127.871ZM124.735 112.589H126.603V118.871C126.603 119.043 126.63 119.178 126.682 119.274C126.735 119.368 126.808 119.434 126.902 119.472C126.998 119.51 127.109 119.529 127.235 119.529C127.323 119.529 127.41 119.522 127.498 119.507C127.586 119.489 127.653 119.476 127.7 119.467L127.994 120.858C127.9 120.887 127.769 120.921 127.599 120.959C127.429 121 127.223 121.025 126.981 121.034C126.53 121.051 126.135 120.991 125.796 120.854C125.46 120.716 125.198 120.503 125.011 120.213C124.824 119.924 124.732 119.558 124.735 119.117V112.589ZM129.088 120.941V114.203H130.957V120.941H129.088ZM130.027 113.335C129.749 113.335 129.511 113.243 129.312 113.059C129.116 112.871 129.018 112.648 129.018 112.387C129.018 112.13 129.116 111.909 129.312 111.725C129.511 111.538 129.749 111.444 130.027 111.444C130.305 111.444 130.542 111.538 130.738 111.725C130.937 111.909 131.036 112.13 131.036 112.387C131.036 112.648 130.937 112.871 130.738 113.059C130.542 113.243 130.305 113.335 130.027 113.335ZM138.736 114.203L136.38 120.941H134.275L131.919 114.203H133.893L135.292 119.024H135.362L136.757 114.203H138.736ZM139.692 120.941V114.203H141.561V120.941H139.692ZM140.631 113.335C140.353 113.335 140.115 113.243 139.916 113.059C139.72 112.871 139.622 112.648 139.622 112.387C139.622 112.13 139.72 111.909 139.916 111.725C140.115 111.538 140.353 111.444 140.631 111.444C140.909 111.444 141.146 111.538 141.342 111.725C141.54 111.909 141.64 112.13 141.64 112.387C141.64 112.648 141.54 112.871 141.342 113.059C141.146 113.243 140.909 113.335 140.631 113.335ZM146.642 114.203V115.607H142.584V114.203H146.642ZM143.505 112.589H145.374V118.871C145.374 119.043 145.4 119.178 145.453 119.274C145.506 119.368 145.579 119.434 145.672 119.472C145.769 119.51 145.88 119.529 146.006 119.529C146.093 119.529 146.181 119.522 146.269 119.507C146.357 119.489 146.424 119.476 146.471 119.467L146.765 120.858C146.671 120.887 146.539 120.921 146.37 120.959C146.2 121 145.994 121.025 145.751 121.034C145.301 121.051 144.906 120.991 144.567 120.854C144.231 120.716 143.969 120.503 143.782 120.213C143.594 119.924 143.502 119.558 143.505 119.117V112.589ZM149.013 123.468C148.776 123.468 148.554 123.449 148.346 123.411C148.141 123.376 147.972 123.331 147.837 123.275L148.258 121.88C148.478 121.947 148.675 121.984 148.85 121.99C149.029 121.996 149.182 121.955 149.311 121.867C149.443 121.779 149.549 121.63 149.631 121.42L149.741 121.134L147.324 114.203H149.289L150.684 119.152H150.754L152.162 114.203H154.141L151.522 121.67C151.396 122.032 151.225 122.348 151.009 122.617C150.795 122.889 150.525 123.098 150.197 123.244C149.87 123.394 149.475 123.468 149.013 123.468Z" fill="white"/>
<rect x="32.6475" y="59.5293" width="157.059" height="32.6471" rx="10.5882" fill="#EFEFEF"/>
<rect x="32.6475" y="146" width="157.059" height="32.6471" rx="10.5882" fill="#EFEFEF"/>
<rect x="40.5879" y="71.8823" width="71.4706" height="7.94118" rx="3.97059" fill="#E1DFDF"/>
<rect x="40.5879" y="158.353" width="71.4706" height="7.94118" rx="3.97059" fill="#E1DFDF"/>
<defs>
<filter id="filter0_d_49_218" x="0.882353" y="0.411765" width="222.353" height="223.235" filterUnits="userSpaceOnUse" color-interpolation-filters="sRGB">
<feFlood flood-opacity="0" result="BackgroundImageFix"/>
<feColorMatrix in="SourceAlpha" type="matrix" values="0 0 0 0 0 0 0 0 0 0 0 0 0 0 0 0 0 0 127 0" result="hardAlpha"/>
<feOffset dy="3.52941"/>
<feGaussianBlur stdDeviation="7.05882"/>
<feComposite in2="hardAlpha" operator="out"/>
<feColorMatrix type="matrix" values="0 0 0 0 0.180392 0 0 0 0 0.227451 0 0 0 0 0.321569 0 0 0 0.2 0"/>
<feBlend mode="normal" in2="BackgroundImageFix" result="effect1_dropShadow_49_218"/>
<feBlend mode="normal" in="SourceGraphic" in2="effect1_dropShadow_49_218" result="shape"/>
</filter>
</defs>
</svg>
