<svg width="171" height="172" viewBox="0 0 171 172" fill="none" xmlns="http://www.w3.org/2000/svg">
<g filter="url(#filter0_d_49_154)">
<rect x="11" y="9" width="148.326" height="149" rx="2.69683" fill="white"/>
</g>
<rect x="24.4841" y="62.2622" width="120.009" height="22.9231" rx="8.0905" fill="#2AB6A0"/>
<rect x="24.4841" y="112.154" width="47.8688" height="22.9231" rx="8.0905" fill="#371CF5" fill-opacity="0.1"/>
<path d="M24.9955 30.4844V24.6004H28.8914V25.6261H26.2396V27.0281H28.6328V28.0538H26.2396V30.4844H24.9955ZM29.7052 30.4844V26.0714H30.9291V30.4844H29.7052ZM30.32 25.5025C30.138 25.5025 29.9819 25.4422 29.8517 25.3215C29.7234 25.1989 29.6592 25.0524 29.6592 24.8819C29.6592 24.7134 29.7234 24.5688 29.8517 24.4481C29.9819 24.3255 30.138 24.2642 30.32 24.2642C30.502 24.2642 30.6571 24.3255 30.7854 24.4481C30.9157 24.5688 30.9808 24.7134 30.9808 24.8819C30.9808 25.0524 30.9157 25.1989 30.7854 25.3215C30.6571 25.4422 30.502 25.5025 30.32 25.5025ZM33.1334 24.6004V30.4844H31.9095V24.6004H33.1334ZM36.4611 26.0714V26.9908H33.8036V26.0714H36.4611ZM34.4069 25.0141H35.6308V29.1283C35.6308 29.2413 35.6481 29.3294 35.6825 29.3926C35.717 29.4539 35.7649 29.497 35.8262 29.5219C35.8894 29.5468 35.9622 29.5593 36.0446 29.5593C36.102 29.5593 36.1595 29.5545 36.2169 29.5449C36.2744 29.5334 36.3184 29.5248 36.3491 29.519L36.5416 30.4298C36.4803 30.4489 36.3941 30.471 36.283 30.4959C36.1719 30.5227 36.0369 30.539 35.8779 30.5447C35.5829 30.5562 35.3244 30.5169 35.1022 30.4269C34.8819 30.3369 34.7105 30.1971 34.5879 30.0074C34.4653 29.8178 34.405 29.5784 34.4069 29.2892V25.0141ZM39.2221 30.5706C38.7682 30.5706 38.3775 30.4786 38.0499 30.2948C37.7243 30.109 37.4734 29.8466 37.2972 29.5075C37.121 29.1666 37.0329 28.7634 37.0329 28.298C37.0329 27.844 37.121 27.4456 37.2972 27.1028C37.4734 26.7599 37.7215 26.4928 38.0413 26.3012C38.3631 26.1097 38.7404 26.0139 39.1733 26.0139C39.4644 26.0139 39.7355 26.0608 39.9864 26.1547C40.2392 26.2466 40.4595 26.3855 40.6472 26.5713C40.8368 26.7571 40.9843 26.9908 41.0896 27.2723C41.195 27.552 41.2476 27.8795 41.2476 28.2549V28.591H37.5213V27.8326H40.0955C40.0955 27.6563 40.0572 27.5002 39.9806 27.3642C39.904 27.2283 39.7977 27.122 39.6617 27.0453C39.5276 26.9668 39.3715 26.9275 39.1934 26.9275C39.0076 26.9275 38.8429 26.9706 38.6992 27.0568C38.5575 27.1411 38.4464 27.2551 38.366 27.3987C38.2855 27.5405 38.2443 27.6985 38.2424 27.8728V28.5939C38.2424 28.8123 38.2827 29.0009 38.3631 29.1599C38.4455 29.3189 38.5613 29.4415 38.7107 29.5277C38.8601 29.6138 39.0373 29.6569 39.2423 29.6569C39.3782 29.6569 39.5027 29.6378 39.6157 29.5995C39.7288 29.5612 39.8255 29.5037 39.9059 29.4271C39.9864 29.3505 40.0477 29.2566 40.0898 29.1455L41.2218 29.2202C41.1643 29.4922 41.0465 29.7297 40.8684 29.9328C40.6922 30.1339 40.4643 30.2909 40.1846 30.4039C39.9069 30.515 39.5861 30.5706 39.2221 30.5706ZM42.0463 30.4844V26.0714H43.2329V26.8414H43.2789C43.3593 26.5675 43.4944 26.3606 43.684 26.2208C43.8736 26.079 44.092 26.0082 44.339 26.0082C44.4003 26.0082 44.4664 26.012 44.5373 26.0197C44.6081 26.0273 44.6704 26.0379 44.724 26.0513V27.1373C44.6666 27.12 44.5871 27.1047 44.4856 27.0913C44.384 27.0779 44.2912 27.0712 44.2069 27.0712C44.0268 27.0712 43.8659 27.1105 43.7242 27.189C43.5844 27.2656 43.4733 27.3729 43.3909 27.5108C43.3105 27.6487 43.2703 27.8077 43.2703 27.9877V30.4844H42.0463ZM49.0286 27.3298L47.9081 27.3987C47.8889 27.303 47.8477 27.2168 47.7845 27.1401C47.7213 27.0616 47.638 26.9994 47.5346 26.9534C47.4331 26.9055 47.3114 26.8816 47.1697 26.8816C46.9801 26.8816 46.8201 26.9218 46.6899 27.0022C46.5597 27.0808 46.4945 27.1861 46.4945 27.3183C46.4945 27.4236 46.5367 27.5127 46.621 27.5855C46.7052 27.6583 46.8498 27.7167 47.0548 27.7607L47.8535 27.9216C48.2825 28.0097 48.6024 28.1515 48.8131 28.3468C49.0238 28.5422 49.1291 28.7989 49.1291 29.1168C49.1291 29.406 49.0439 29.6598 48.8734 29.8782C48.7049 30.0965 48.4731 30.267 48.1781 30.3896C47.8851 30.5102 47.547 30.5706 47.164 30.5706C46.5798 30.5706 46.1143 30.4489 45.7677 30.2057C45.4229 29.9605 45.2208 29.6272 45.1614 29.2059L46.3652 29.1427C46.4016 29.3208 46.4897 29.4568 46.6296 29.5506C46.7694 29.6426 46.9485 29.6885 47.1668 29.6885C47.3814 29.6885 47.5537 29.6474 47.684 29.565C47.8161 29.4807 47.8832 29.3725 47.8851 29.2403C47.8832 29.1293 47.8362 29.0383 47.7443 28.9674C47.6524 28.8946 47.5106 28.8391 47.3191 28.8008L46.5549 28.6485C46.1239 28.5623 45.8031 28.4129 45.5924 28.2003C45.3836 27.9877 45.2792 27.7167 45.2792 27.3872C45.2792 27.1038 45.3559 26.8595 45.5091 26.6546C45.6642 26.4497 45.8816 26.2916 46.1613 26.1806C46.4428 26.0695 46.7723 26.0139 47.1496 26.0139C47.707 26.0139 48.1456 26.1317 48.4654 26.3673C48.7872 26.6029 48.9749 26.9237 49.0286 27.3298Z" fill="#1A1A1A"/>
<path d="M24.9151 53.7783V49.8557H25.5069V53.2688H27.2844V53.7783H24.9151ZM31.2142 51.817C31.2142 52.2358 31.1376 52.5959 30.9844 52.8973C30.8312 53.1973 30.6211 53.4284 30.3542 53.5906C30.0886 53.7515 29.7867 53.832 29.4483 53.832C29.1086 53.832 28.8054 53.7515 28.5385 53.5906C28.2729 53.4284 28.0635 53.1967 27.9102 52.8953C27.757 52.594 27.6804 52.2345 27.6804 51.817C27.6804 51.3982 27.757 51.0387 27.9102 50.7386C28.0635 50.4373 28.2729 50.2062 28.5385 50.0453C28.8054 49.8831 29.1086 49.802 29.4483 49.802C29.7867 49.802 30.0886 49.8831 30.3542 50.0453C30.6211 50.2062 30.8312 50.4373 30.9844 50.7386C31.1376 51.0387 31.2142 51.3982 31.2142 51.817ZM30.6281 51.817C30.6281 51.4978 30.5764 51.229 30.473 51.0106C30.3708 50.791 30.2304 50.625 30.0516 50.5126C29.8741 50.399 29.673 50.3422 29.4483 50.3422C29.2223 50.3422 29.0205 50.399 28.843 50.5126C28.6655 50.625 28.5251 50.791 28.4216 51.0106C28.3195 51.229 28.2684 51.4978 28.2684 51.817C28.2684 52.1362 28.3195 52.4056 28.4216 52.6253C28.5251 52.8436 28.6655 53.0096 28.843 53.1233C29.0205 53.2356 29.2223 53.2918 29.4483 53.2918C29.673 53.2918 29.8741 53.2356 30.0516 53.1233C30.2304 53.0096 30.3708 52.8436 30.473 52.6253C30.5764 52.4056 30.6281 52.1362 30.6281 51.817ZM35.2102 51.1313H34.6126C34.5896 51.0036 34.5468 50.8912 34.4842 50.7942C34.4217 50.6971 34.3451 50.6148 34.2544 50.5471C34.1637 50.4794 34.0622 50.4283 33.9499 50.3939C33.8388 50.3594 33.7207 50.3422 33.5955 50.3422C33.3695 50.3422 33.1671 50.399 32.9883 50.5126C32.8109 50.6263 32.6704 50.7929 32.567 51.0125C32.4648 51.2322 32.4137 51.5003 32.4137 51.817C32.4137 52.1362 32.4648 52.4056 32.567 52.6253C32.6704 52.8449 32.8115 53.0109 32.9903 53.1233C33.169 53.2356 33.3701 53.2918 33.5936 53.2918C33.7175 53.2918 33.8349 53.2752 33.946 53.242C34.0584 53.2075 34.1599 53.1571 34.2506 53.0907C34.3412 53.0243 34.4178 52.9432 34.4804 52.8475C34.5443 52.7504 34.5883 52.6393 34.6126 52.5142L35.2102 52.5161C35.1782 52.7089 35.1163 52.8864 35.0244 53.0486C34.9337 53.2095 34.8169 53.3486 34.6739 53.4661C34.5321 53.5823 34.37 53.6723 34.1874 53.7362C34.0048 53.8 33.8056 53.832 33.5898 53.832C33.2501 53.832 32.9475 53.7515 32.6819 53.5906C32.4163 53.4284 32.2069 53.1967 32.0536 52.8953C31.9017 52.594 31.8257 52.2345 31.8257 51.817C31.8257 51.3982 31.9023 51.0387 32.0556 50.7386C32.2088 50.4373 32.4182 50.2062 32.6838 50.0453C32.9494 49.8831 33.2514 49.802 33.5898 49.802C33.7979 49.802 33.992 49.832 34.172 49.892C34.3534 49.9508 34.5162 50.0376 34.6605 50.1525C34.8048 50.2662 34.9241 50.4054 35.0186 50.5701C35.1131 50.7335 35.177 50.9206 35.2102 51.1313ZM36.2234 53.7783H35.5952L37.0068 49.8557H37.6906L39.1022 53.7783H38.474L37.365 50.5682H37.3343L36.2234 53.7783ZM36.3287 52.2422H38.3667V52.7402H36.3287V52.2422ZM39.0117 50.3651V49.8557H42.0475V50.3651H40.8236V53.7783H40.2337V50.3651H39.0117ZM43.3102 49.8557V53.7783H42.7184V49.8557H43.3102ZM47.5796 51.817C47.5796 52.2358 47.503 52.5959 47.3497 52.8973C47.1965 53.1973 46.9865 53.4284 46.7196 53.5906C46.454 53.7515 46.152 53.832 45.8136 53.832C45.474 53.832 45.1707 53.7515 44.9038 53.5906C44.6382 53.4284 44.4288 53.1967 44.2756 52.8953C44.1224 52.594 44.0457 52.2345 44.0457 51.817C44.0457 51.3982 44.1224 51.0387 44.2756 50.7386C44.4288 50.4373 44.6382 50.2062 44.9038 50.0453C45.1707 49.8831 45.474 49.802 45.8136 49.802C46.152 49.802 46.454 49.8831 46.7196 50.0453C46.9865 50.2062 47.1965 50.4373 47.3497 50.7386C47.503 51.0387 47.5796 51.3982 47.5796 51.817ZM46.9935 51.817C46.9935 51.4978 46.9418 51.229 46.8383 51.0106C46.7362 50.791 46.5957 50.625 46.417 50.5126C46.2395 50.399 46.0384 50.3422 45.8136 50.3422C45.5876 50.3422 45.3859 50.399 45.2084 50.5126C45.0309 50.625 44.8904 50.791 44.787 51.0106C44.6848 51.229 44.6338 51.4978 44.6338 51.817C44.6338 52.1362 44.6848 52.4056 44.787 52.6253C44.8904 52.8436 45.0309 53.0096 45.2084 53.1233C45.3859 53.2356 45.5876 53.2918 45.8136 53.2918C46.0384 53.2918 46.2395 53.2356 46.417 53.1233C46.5957 53.0096 46.7362 52.8436 46.8383 52.6253C46.9418 52.4056 46.9935 52.1362 46.9935 51.817ZM51.4836 49.8557V53.7783H50.9396L48.9457 50.9014H48.9093V53.7783H48.3175V49.8557H48.8653L50.8611 52.7364H50.8975V49.8557H51.4836Z" fill="#1A1A1A"/>
<path d="M26.185 103.67H24.9151V99.7473H26.2252C26.6095 99.7473 26.9396 99.8258 27.2154 99.9828C27.4913 100.139 27.7026 100.363 27.8494 100.655C27.9975 100.946 28.0716 101.296 28.0716 101.703C28.0716 102.111 27.9969 102.463 27.8475 102.756C27.6994 103.05 27.4849 103.276 27.2039 103.434C26.923 103.591 26.5834 103.67 26.185 103.67ZM25.5069 103.153H26.1524C26.4512 103.153 26.6996 103.097 26.8975 102.984C27.0954 102.871 27.2435 102.706 27.3419 102.492C27.4402 102.276 27.4893 102.013 27.4893 101.703C27.4893 101.395 27.4402 101.134 27.3419 100.919C27.2448 100.705 27.0999 100.542 26.9071 100.431C26.7143 100.32 26.4748 100.264 26.1888 100.264H25.5069V103.153ZM28.8076 103.67V99.7473H31.2669V100.257H29.3994V101.452H31.1386V101.96H29.3994V103.16H31.2899V103.67H28.8076ZM32.0575 103.67V99.7473H33.4557C33.7609 99.7473 34.0137 99.8028 34.2142 99.9139C34.4147 100.025 34.5647 100.177 34.6643 100.37C34.7639 100.561 34.8137 100.777 34.8137 101.017C34.8137 101.258 34.7633 101.476 34.6624 101.668C34.5628 101.86 34.4121 102.012 34.2104 102.124C34.0099 102.235 33.7577 102.291 33.4538 102.291H32.4923V101.789H33.4002C33.593 101.789 33.7494 101.756 33.8694 101.689C33.9894 101.622 34.0776 101.53 34.1337 101.414C34.1899 101.297 34.218 101.165 34.218 101.017C34.218 100.869 34.1899 100.737 34.1337 100.623C34.0776 100.508 33.9888 100.418 33.8675 100.353C33.7475 100.287 33.5891 100.255 33.3925 100.255H32.6493V103.67H32.0575ZM35.4228 103.67H34.7945L36.2062 99.7473H36.8899L38.3016 103.67H37.6733L36.5643 100.46H36.5337L35.4228 103.67ZM35.5281 102.134H37.5661V102.632H35.5281V102.134ZM38.868 103.67V99.7473H40.2663C40.5702 99.7473 40.8223 99.7996 41.0228 99.9043C41.2246 100.009 41.3752 100.154 41.4748 100.339C41.5744 100.523 41.6242 100.736 41.6242 100.977C41.6242 101.217 41.5738 101.428 41.4729 101.611C41.3733 101.792 41.2227 101.933 41.0209 102.034C40.8204 102.135 40.5682 102.186 40.2643 102.186H39.2051V101.676H40.2107C40.4022 101.676 40.558 101.649 40.6781 101.594C40.7994 101.539 40.8881 101.459 40.9443 101.354C41.0005 101.25 41.0286 101.124 41.0286 100.977C41.0286 100.829 40.9998 100.7 40.9424 100.592C40.8862 100.483 40.7974 100.4 40.6761 100.343C40.5561 100.284 40.3984 100.255 40.203 100.255H39.4599V103.67H38.868ZM40.8045 101.9L41.7736 103.67H41.0994L40.1494 101.9H40.8045ZM42.151 100.257V99.7473H45.1868V100.257H43.9629V103.67H43.373V100.257H42.151ZM45.8577 99.7473H46.5759L47.8248 102.797H47.8707L49.1195 99.7473H49.8378V103.67H49.2747V100.831H49.2383L48.0814 103.664H47.6141L46.4572 100.829H46.4208V103.67H45.8577V99.7473ZM50.6983 103.67V99.7473H53.1576V100.257H51.2901V101.452H53.0293V101.96H51.2901V103.16H53.1806V103.67H50.6983ZM57.1143 99.7473V103.67H56.5703L54.5764 100.793H54.54V103.67H53.9482V99.7473H54.496L56.4918 102.628H56.5282V99.7473H57.1143ZM57.7842 100.257V99.7473H60.82V100.257H59.5961V103.67H59.0062V100.257H57.7842Z" fill="#1A1A1A"/>
<path d="M66.9985 71.1204V77.0044H65.924L63.3641 73.301H63.321V77.0044H62.077V71.1204H63.1687L65.7085 74.8209H65.7602V71.1204H66.9985ZM70.0145 77.0906C69.5605 77.0906 69.1698 76.9986 68.8423 76.8148C68.5166 76.629 68.2657 76.3666 68.0895 76.0276C67.9133 75.6866 67.8252 75.2834 67.8252 74.818C67.8252 74.3641 67.9133 73.9657 68.0895 73.6228C68.2657 73.28 68.5138 73.0128 68.8336 72.8212C69.1554 72.6297 69.5327 72.5339 69.9656 72.5339C70.2568 72.5339 70.5278 72.5809 70.7787 72.6747C71.0315 72.7667 71.2518 72.9055 71.4395 73.0913C71.6291 73.2771 71.7766 73.5108 71.8819 73.7923C71.9873 74.072 72.04 74.3995 72.04 74.7749V75.1111H68.3136V74.3526H70.8879C70.8879 74.1764 70.8496 74.0203 70.7729 73.8843C70.6963 73.7483 70.59 73.642 70.454 73.5654C70.32 73.4868 70.1639 73.4476 69.9857 73.4476C69.7999 73.4476 69.6352 73.4907 69.4916 73.5769C69.3498 73.6611 69.2387 73.7751 69.1583 73.9187C69.0778 74.0605 69.0367 74.2185 69.0348 74.3928V75.1139C69.0348 75.3323 69.075 75.5209 69.1554 75.6799C69.2378 75.8389 69.3537 75.9615 69.5031 76.0477C69.6525 76.1339 69.8296 76.177 70.0346 76.177C70.1706 76.177 70.2951 76.1578 70.4081 76.1195C70.5211 76.0812 70.6178 76.0237 70.6982 75.9471C70.7787 75.8705 70.84 75.7766 70.8821 75.6656L72.0141 75.7403C71.9566 76.0122 71.8388 76.2497 71.6607 76.4528C71.4845 76.6539 71.2566 76.8109 70.9769 76.9239C70.6992 77.035 70.3784 77.0906 70.0145 77.0906ZM73.6776 77.0044L72.4767 72.5914H73.7149L74.3987 75.5564H74.439L75.1515 72.5914H76.3668L77.0908 75.5391H77.1281L77.8004 72.5914H79.0358L77.8378 77.0044H76.542L75.7835 74.229H75.729L74.9705 77.0044H73.6776ZM81.2395 71.1204H82.6329L83.9746 73.6544H84.0321L85.3738 71.1204H86.7672L84.621 74.9243V77.0044H83.3856V74.9243L81.2395 71.1204ZM88.4932 77.0906C88.0469 77.0906 87.661 76.9958 87.3353 76.8062C87.0116 76.6146 86.7617 76.3484 86.5855 76.0074C86.4093 75.6646 86.3212 75.2672 86.3212 74.8151C86.3212 74.3593 86.4093 73.9609 86.5855 73.6199C86.7617 73.2771 87.0116 73.0109 87.3353 72.8212C87.661 72.6297 88.0469 72.5339 88.4932 72.5339C88.9395 72.5339 89.3244 72.6297 89.6481 72.8212C89.9738 73.0109 90.2247 73.2771 90.4009 73.6199C90.5771 73.9609 90.6652 74.3593 90.6652 74.8151C90.6652 75.2672 90.5771 75.6646 90.4009 76.0074C90.2247 76.3484 89.9738 76.6146 89.6481 76.8062C89.3244 76.9958 88.9395 77.0906 88.4932 77.0906ZM88.4989 76.1425C88.702 76.1425 88.8715 76.085 89.0075 75.9701C89.1434 75.8533 89.2459 75.6943 89.3149 75.4932C89.3857 75.2921 89.4212 75.0632 89.4212 74.8065C89.4212 74.5499 89.3857 74.321 89.3149 74.1199C89.2459 73.9187 89.1434 73.7598 89.0075 73.6429C88.8715 73.5261 88.702 73.4677 88.4989 73.4677C88.294 73.4677 88.1216 73.5261 87.9818 73.6429C87.8439 73.7598 87.7395 73.9187 87.6686 74.1199C87.5997 74.321 87.5652 74.5499 87.5652 74.8065C87.5652 75.0632 87.5997 75.2921 87.6686 75.4932C87.7395 75.6943 87.8439 75.8533 87.9818 75.9701C88.1216 76.085 88.294 76.1425 88.4989 76.1425ZM91.461 77.0044V72.5914H92.6476V73.3614H92.6936C92.774 73.0875 92.909 72.8806 93.0987 72.7408C93.2883 72.5991 93.5066 72.5282 93.7537 72.5282C93.815 72.5282 93.8811 72.532 93.952 72.5397C94.0228 72.5473 94.0851 72.5579 94.1387 72.5713V73.6573C94.0813 73.6401 94.0018 73.6247 93.9003 73.6113C93.7987 73.5979 93.7058 73.5912 93.6216 73.5912C93.4415 73.5912 93.2806 73.6305 93.1389 73.709C92.9991 73.7856 92.888 73.8929 92.8056 74.0308C92.7252 74.1687 92.685 74.3277 92.685 74.5077V77.0044H91.461ZM95.8805 75.7345L95.8834 74.2664H96.0615L97.475 72.5914H98.88L96.9809 74.8094H96.6907L95.8805 75.7345ZM94.7715 77.0044V71.1204H95.9954V77.0044H94.7715ZM97.5296 77.0044L96.231 75.0823L97.047 74.2175L98.9633 77.0044H97.5296ZM100.811 76.1999L100.779 76.516C100.754 76.7688 100.706 77.0207 100.635 77.2716C100.566 77.5244 100.494 77.7533 100.417 77.9582C100.342 78.1632 100.282 78.3241 100.236 78.4409H99.4431C99.4718 78.3279 99.5111 78.1699 99.5609 77.9669C99.6107 77.7658 99.6576 77.5397 99.7016 77.2888C99.7457 77.0379 99.7735 76.7822 99.785 76.5217L99.7993 76.1999H100.811ZM108.47 71.1204V77.0044H107.396L104.836 73.301H104.793V77.0044H103.549V71.1204H104.64L107.18 74.8209H107.232V71.1204H108.47ZM109.153 71.1204H110.547L111.888 73.6544H111.946L113.288 71.1204H114.681L112.535 74.9243V77.0044H111.299V74.9243L109.153 71.1204Z" fill="white"/>
<path d="M42.8654 126.896H41.5323L43.5636 121.012H45.1667L47.1951 126.896H45.862L44.3881 122.357H44.3422L42.8654 126.896ZM42.7821 124.583H45.931V125.554H42.7821V124.583ZM49.1043 121.012V126.896H47.8803V121.012H49.1043ZM51.3086 121.012V126.896H50.0847V121.012H51.3086Z" fill="#3B4FF2"/>
<defs>
<filter id="filter0_d_49_154" x="0.212669" y="0.909502" width="169.9" height="170.575" filterUnits="userSpaceOnUse" color-interpolation-filters="sRGB">
<feFlood flood-opacity="0" result="BackgroundImageFix"/>
<feColorMatrix in="SourceAlpha" type="matrix" values="0 0 0 0 0 0 0 0 0 0 0 0 0 0 0 0 0 0 127 0" result="hardAlpha"/>
<feOffset dy="2.69683"/>
<feGaussianBlur stdDeviation="5.39367"/>
<feComposite in2="hardAlpha" operator="out"/>
<feColorMatrix type="matrix" values="0 0 0 0 0.180392 0 0 0 0 0.227451 0 0 0 0 0.321569 0 0 0 0.2 0"/>
<feBlend mode="normal" in2="BackgroundImageFix" result="effect1_dropShadow_49_154"/>
<feBlend mode="normal" in="SourceGraphic" in2="effect1_dropShadow_49_154" result="shape"/>
</filter>
</defs>
</svg>
